<?xml version="1.0" encoding="UTF-8"?>
<svg version="1.1" xmlns="http://www.w3.org/2000/svg" width="526" height="673">
<path d="M0 0 C173.58 0 347.16 0 526 0 C526 222.09 526 444.18 526 673 C352.42 673 178.84 673 0 673 C0 450.91 0 228.82 0 0 Z " fill="#F8F9FB" transform="translate(0,0)"/>
<path d="M0 0 C1.03556589 -0.0039821 2.07113178 -0.00796419 3.13807845 -0.01206696 C4.84234602 -0.00332844 4.84234602 -0.00332844 6.58104324 0.00558662 C7.78910889 0.00387777 8.99717453 0.00216892 10.24184823 0.00040829 C13.596362 -0.00231934 16.95064314 0.00394233 20.30512881 0.01396441 C23.92199752 0.02259242 27.53885891 0.01967922 31.15573502 0.01815987 C37.42264131 0.0171106 43.689506 0.02339152 49.95640182 0.03463554 C59.01730173 0.05088198 68.07818149 0.05609767 77.13909438 0.05861153 C91.83942094 0.06298998 106.53972531 0.07630314 121.24003983 0.09521675 C135.52096317 0.11357167 149.8018805 0.12773008 164.08281326 0.13623238 C164.96292606 0.13675782 165.84303887 0.13728327 166.74982175 0.13782464 C171.1650402 0.14043469 175.58025868 0.14296211 179.9954772 0.14544845 C216.63056595 0.16618561 253.26561368 0.20305789 289.90068436 0.24609566 C289.90068436 25.32609566 289.90068436 50.40609566 289.90068436 76.24609566 C252.40453223 76.3122085 214.90843498 76.36761001 177.41224127 76.39929165 C172.98740904 76.40304385 168.56257694 76.40692681 164.1377449 76.41089058 C163.2568251 76.41167751 162.37590529 76.41246444 161.46829095 76.41327522 C147.1967924 76.42633599 132.92533004 76.44999353 118.65385298 76.47755405 C104.01452044 76.50558957 89.37520688 76.52226799 74.73584861 76.52836114 C65.69955837 76.53248143 56.6633704 76.54550403 47.62711164 76.56984506 C41.43409729 76.58567939 35.24113596 76.59050125 29.04810283 76.58659979 C25.47281778 76.58467464 21.89771166 76.58766561 18.32245827 76.60371208 C14.4486714 76.62097175 10.57511896 76.61507287 6.70129776 76.60685921 C5.56803222 76.61559773 4.43476668 76.62433626 3.26715976 76.63333958 C2.22960282 76.62736644 1.19204589 76.62139329 0.12304783 76.61523914 C-0.77119355 76.6163783 -1.66543493 76.61751747 -2.58677453 76.61869115 C-5.70452728 76.15634623 -7.5810277 75.1205673 -10.09931564 73.24609566 C-11.19195348 69.96818214 -11.2328162 67.54481621 -11.24457932 64.09399605 C-11.25095917 62.82580528 -11.25733902 61.55761452 -11.2639122 60.25099373 C-11.26544086 58.86524684 -11.26655483 57.47949944 -11.26728439 56.09375191 C-11.2704979 54.67272597 -11.27386205 53.25170037 -11.27737045 51.83067513 C-11.28335754 48.85236023 -11.28521077 45.87407435 -11.28461838 42.89575386 C-11.28451673 39.08138455 -11.29817295 35.2672013 -11.31539059 31.45287609 C-11.32651419 28.51805455 -11.32853748 25.58327796 -11.32800865 22.6484375 C-11.32918807 21.24223819 -11.33360773 19.8360377 -11.34134102 18.42985916 C-11.35114834 16.46246046 -11.34699668 14.49500718 -11.34223557 12.5275898 C-11.34366058 11.40856773 -11.3450856 10.28954567 -11.3465538 9.13661385 C-11.09724735 6.22191482 -10.78896011 4.61660891 -9.09931564 2.24609566 C-5.99596921 0.3173552 -3.62217115 -0.00307485 0 0 Z " fill="#FDFEFD" transform="translate(49.09931564331055,141.75390434265137)"/>
<path d="M0 0 C1.14826263 -0.00571014 2.29652527 -0.01142029 3.47958374 -0.01730347 C4.74558914 -0.01842133 6.01159454 -0.01953918 7.31596375 -0.02069092 C8.65788408 -0.02531842 9.9998031 -0.03034299 11.34172058 -0.03573608 C14.99264737 -0.04886956 18.64355577 -0.05530701 22.2945025 -0.05974674 C24.57503206 -0.06267625 26.85555658 -0.06678085 29.1360836 -0.07125092 C36.27000541 -0.08492902 43.40391571 -0.09459385 50.53784972 -0.09845281 C58.77521576 -0.10293296 67.0124158 -0.12047744 75.24973136 -0.1494534 C81.61498108 -0.17106735 87.9801841 -0.18115695 94.34547013 -0.18249393 C98.14795348 -0.18354227 101.95028086 -0.18945597 105.7527256 -0.20731354 C109.33061248 -0.22378913 112.9082261 -0.22595238 116.48613739 -0.21717453 C118.4234465 -0.21603665 120.36074652 -0.22975846 122.29800415 -0.243927 C123.45472626 -0.23835785 124.61144836 -0.2327887 125.80322266 -0.22705078 C127.30784042 -0.22925062 127.30784042 -0.22925062 128.8428545 -0.2314949 C132.10452234 0.20976803 133.95223509 1.19888806 136.59208679 3.14044189 C138.9503162 6.67778601 138.84969566 8.17597357 138.866745 12.36846924 C138.87627701 13.65345306 138.88580902 14.93843689 138.89562988 16.26235962 C138.89536843 17.66703315 138.89443124 19.0717067 138.89286804 20.47637939 C138.89675556 21.91743086 138.90109035 23.35848119 138.90585327 24.79953003 C138.91331586 27.82075717 138.91302439 30.84186746 138.90776062 33.86309814 C138.90197191 37.72904476 138.91888181 41.59451136 138.94210529 45.46037865 C138.95686135 48.43729434 138.95771171 51.41409501 138.95459557 54.3910408 C138.95510804 55.81595433 138.96033196 57.24087442 138.97040749 58.66575241 C138.98278665 60.66167272 138.97402904 62.65769001 138.96440125 64.65362549 C138.96503067 65.78819183 138.9656601 66.92275818 138.96630859 68.09170532 C138.54740148 71.50448739 137.59953781 73.37800964 135.59208679 76.14044189 C131.99527067 78.93240189 127.60310135 78.43702823 123.24833679 78.44903564 C121.59338523 78.47418742 119.93843739 78.49958556 118.28349304 78.52520752 C115.68307902 78.55398078 113.0827295 78.5780093 110.48222351 78.59674072 C107.96642976 78.61839168 105.45137492 78.65781921 102.93583679 78.69903564 C101.77163208 78.69920937 101.77163208 78.69920937 100.58390808 78.6993866 C96.24068357 78.77901398 93.81715324 79.1940849 90.59208679 82.14044189 C88.30302429 82.28497314 88.30302429 82.28497314 85.96708679 81.95294189 C84.80306335 81.80792236 84.80306335 81.80792236 83.61552429 81.65997314 C81.59208679 81.14044189 81.59208679 81.14044189 79.59208679 79.14044189 C76.9083576 78.94383441 74.32643578 78.87087163 71.64164734 78.8850708 C70.82033325 78.88145035 69.99901917 78.8778299 69.15281677 78.87409973 C67.36582235 78.86719612 65.5788068 78.8647021 63.79179955 78.86604691 C60.96310475 78.86700974 58.13479251 78.85409835 55.30615234 78.83706665 C47.26257823 78.7907237 39.21904167 78.76619025 31.17533875 78.75958252 C26.25807078 78.7545684 21.34120002 78.73032052 16.42406654 78.69425583 C14.54982195 78.68445255 12.67552274 78.68212876 10.80125999 78.68742752 C8.17731176 78.69449617 5.55454632 78.67721968 2.93070984 78.65460205 C2.15701553 78.66277451 1.38332123 78.67094696 0.58618164 78.67936707 C-3.08043093 78.62317131 -5.22746882 78.25294336 -8.36657715 76.29580688 C-11.72987604 72.74463428 -11.54412316 69.60718793 -11.58491516 64.91241455 C-11.5977504 63.62743073 -11.61058563 62.3424469 -11.62380981 61.01852417 C-11.63197678 59.61385484 -11.6394206 58.20918114 -11.64619446 56.80450439 C-11.65026999 56.09637981 -11.65434551 55.38825523 -11.65854454 54.65867233 C-11.67938429 50.91171309 -11.69369591 47.16479026 -11.70307922 43.41778564 C-11.71414908 39.55176615 -11.74856072 35.68632137 -11.78825092 31.82050514 C-11.81441449 28.84360699 -11.82277069 25.866846 -11.8263607 22.88984299 C-11.83122615 21.46489956 -11.84283912 20.03996224 -11.8613987 18.61513138 C-11.88578329 16.61931508 -11.882406 14.62321843 -11.87788391 12.6272583 C-11.88668327 10.92540878 -11.88668327 10.92540878 -11.8956604 9.18917847 C-11.30027198 5.46761432 -10.0079922 3.81675937 -7.40791321 1.14044189 C-4.80785996 -0.15958473 -2.91274221 0.00864759 0 0 Z " fill="#2562E9" transform="translate(351.4079132080078,140.85955810546875)"/>
<path d="M0 0 C0.80264084 -0.00367669 1.60528167 -0.00735338 2.43224496 -0.01114148 C5.13681775 -0.02220378 7.84135216 -0.02602645 10.54594421 -0.02983093 C12.4789899 -0.03609361 14.41203437 -0.04274024 16.34507751 -0.04974365 C21.60751947 -0.06717046 26.86995233 -0.07770978 32.13241601 -0.08594918 C35.41800295 -0.0910953 38.70358705 -0.09717117 41.98917198 -0.10346031 C52.2626352 -0.12251624 62.5360912 -0.13674707 72.8095687 -0.14507228 C84.68057919 -0.15485012 96.55140347 -0.18118229 108.42234832 -0.22157317 C117.59012079 -0.25169944 126.75783977 -0.2665378 135.92566079 -0.26985329 C141.40490385 -0.27220758 146.88394809 -0.28121731 152.3631382 -0.30631447 C157.51692899 -0.32953945 162.67038926 -0.33385089 167.82421875 -0.32355309 C169.71688624 -0.32305627 171.60956969 -0.32941943 173.50218773 -0.34310913 C176.08437712 -0.36074312 178.66536938 -0.3537643 181.24755859 -0.34057617 C182.37344115 -0.35703004 182.37344115 -0.35703004 183.5220688 -0.37381631 C188.39646464 -0.31362979 190.89718475 0.67003083 194.31425476 4.14717102 C196.01096884 7.54059917 195.49915632 11.40139614 195.51737976 15.13545227 C195.52307983 16.03080185 195.52877991 16.92615143 195.53465271 17.84863281 C195.54410866 19.74590369 195.55063905 21.64319103 195.55448914 23.54048157 C195.56418115 26.43766632 195.59519307 29.33413764 195.62675476 32.2311554 C195.63328619 34.07425014 195.63853611 35.91734996 195.64237976 37.76045227 C195.65472656 38.62519669 195.66707336 39.4899411 195.67979431 40.38088989 C195.66242257 45.09279939 195.49660542 48.39654346 192.31425476 52.14717102 C188.62434128 54.68471168 184.7359138 54.43245295 180.42596436 54.41459656 C179.62569822 54.41912767 178.82543209 54.42365878 178.00091547 54.4283272 C175.31632227 54.44099899 172.63193122 54.43934906 169.9473114 54.43769836 C168.0238214 54.44368182 166.10033379 54.45048694 164.17684937 54.45805359 C158.94963167 54.4757379 153.72247944 54.48040995 148.49523473 54.48168516 C144.13374718 54.48358314 139.77227492 54.49093939 135.41079324 54.49802935 C125.12282789 54.51431962 114.83489755 54.51919766 104.54692078 54.51777649 C93.92796398 54.5165744 83.30921022 54.53768832 72.69030482 54.56926382 C63.57768516 54.59539654 54.46513196 54.60614507 45.35247511 54.60486567 C39.90792579 54.60435522 34.46355693 54.61008454 29.01904488 54.63122177 C23.89968369 54.65055392 18.78067606 54.65076307 13.66130257 54.63618851 C11.78153977 54.63409316 9.90175512 54.63884429 8.02202988 54.65090942 C5.45744456 54.66630542 2.89408696 54.65709186 0.32952881 54.64164734 C-0.78847096 54.65707803 -0.78847096 54.65707803 -1.92905658 54.67282045 C-5.52163986 54.62494811 -7.5534726 54.2301507 -10.62419987 52.30376625 C-13.42191773 49.37705647 -13.80849113 47.01677178 -13.86274719 43.12226868 C-13.87558243 42.3177829 -13.88841766 41.51329712 -13.90164185 40.68443298 C-13.90902878 39.81877716 -13.91641571 38.95312134 -13.92402649 38.06123352 C-13.93209824 37.16729889 -13.94016998 36.27336426 -13.94848633 35.3523407 C-13.96231294 33.4610538 -13.97304146 31.56974209 -13.98091125 29.67842102 C-13.99813938 26.78991918 -14.04203934 23.90255765 -14.08613586 21.01435852 C-14.09626191 19.17582526 -14.10477829 17.33728228 -14.11152649 15.49873352 C-14.12903458 14.63712616 -14.14654266 13.7755188 -14.1645813 12.88780212 C-14.14973927 8.77449123 -14.02429631 6.68518426 -11.78413391 3.12519836 C-8.07015513 -0.37575057 -4.86532466 -0.00118448 0 0 Z " fill="#E0E6EE" transform="translate(59.68574523925781,584.8528289794922)"/>
<path d="M0 0 C0.79855728 -0.00367669 1.59711457 -0.00735338 2.41987056 -0.01114148 C5.11062384 -0.02220359 7.80133855 -0.02602641 10.49211121 -0.02983093 C12.41530481 -0.03609363 14.33849719 -0.04274025 16.26168823 -0.04974365 C21.49727152 -0.06717032 26.73284567 -0.07770975 31.96845078 -0.08594918 C35.23728676 -0.09109533 38.50611988 -0.09717121 41.77495384 -0.10346031 C51.99609132 -0.12251621 62.21722155 -0.13674704 72.43837339 -0.14507228 C84.24882376 -0.15485008 96.05908697 -0.18118215 107.86947137 -0.22157317 C116.9905351 -0.25169973 126.11154508 -0.26653783 135.23265761 -0.26985329 C140.68395543 -0.27220755 146.1350534 -0.28121688 151.58629799 -0.30631447 C156.71382445 -0.32953994 161.8410187 -0.33385069 166.96858406 -0.32355309 C168.85157626 -0.32305628 170.73458451 -0.3294191 172.61752701 -0.34310913 C175.18658122 -0.36074395 177.75443228 -0.35376392 180.32348633 -0.34057617 C181.07018375 -0.35154542 181.81688117 -0.36251466 182.58620578 -0.37381631 C187.45032477 -0.31345412 189.94151875 0.68050915 193.35221863 4.14717102 C195.0489327 7.54059917 194.53712019 11.40139614 194.55534363 15.13545227 C194.5610437 16.03080185 194.56674377 16.92615143 194.57261658 17.84863281 C194.58207253 19.74590369 194.58860292 21.64319103 194.592453 23.54048157 C194.60214502 26.43766632 194.63315694 29.33413764 194.66471863 32.2311554 C194.67125006 34.07425014 194.67649998 35.91734996 194.68034363 37.76045227 C194.69269043 38.62519669 194.70503723 39.4899411 194.71775818 40.38088989 C194.70038644 45.09279939 194.53456928 48.39654346 191.35221863 52.14717102 C187.66974204 54.67588237 183.802077 54.43250571 179.50189209 54.41459656 C178.30761822 54.42139323 178.30761822 54.42139323 177.0892176 54.4283272 C174.41844363 54.44099854 171.74787287 54.43934909 169.07707214 54.43769836 C167.16343422 54.44368185 165.24979871 54.45048698 163.33616638 54.45805359 C158.13580727 54.47573761 152.93551396 54.48040994 147.73512769 54.48168516 C143.39600806 54.48358317 139.05690379 54.49093945 134.71779007 54.49802935 C124.48256238 54.5143195 114.24736989 54.51919767 104.01213074 54.51777649 C93.44770508 54.5165744 82.8834835 54.5376883 72.3191095 54.56926382 C63.25319854 54.59539678 54.18735437 54.60614506 45.12140602 54.60486567 C39.70480201 54.60435522 34.28837938 54.61008416 28.87181282 54.63122177 C23.77871588 54.65055433 18.6859743 54.65076279 13.59286499 54.63618851 C11.72277751 54.63409321 9.85266807 54.638844 7.98261833 54.65090942 C5.43116809 54.66630615 2.88095176 54.65709141 0.32952881 54.64164734 C-0.41191342 54.65193447 -1.15335565 54.66222159 -1.91726583 54.67282045 C-5.5012853 54.62481998 -7.52112974 54.22668863 -10.58386326 52.30376625 C-13.38430984 49.37756986 -13.77050981 47.01802425 -13.82478333 43.12226868 C-13.83761856 42.3177829 -13.8504538 41.51329712 -13.86367798 40.68443298 C-13.87106491 39.81877716 -13.87845184 38.95312134 -13.88606262 38.06123352 C-13.89413437 37.16729889 -13.90220612 36.27336426 -13.91052246 35.3523407 C-13.92434907 33.4610538 -13.93507759 31.56974209 -13.94294739 29.67842102 C-13.96017552 26.78991918 -14.00407547 23.90255765 -14.048172 21.01435852 C-14.05829804 19.17582526 -14.06681442 17.33728228 -14.07356262 15.49873352 C-14.09107071 14.63712616 -14.1085788 13.7755188 -14.12661743 12.88780212 C-14.1117754 8.77449123 -13.98633244 6.68518426 -11.74617004 3.12519836 C-8.04050764 -0.36791121 -4.85465929 -0.00118799 0 0 Z " fill="#E1E7EF" transform="translate(286.6477813720703,584.8528289794922)"/>
<path d="M0 0 C1.32 0 2.64 0 4 0 C4.33 2.64 4.66 5.28 5 8 C5.99 7.34 6.98 6.68 8 6 C14.2474551 6.2231234 14.2474551 6.2231234 16.69140625 8.74609375 C18.96523977 12.66251745 18.62381832 16.61200523 18 21 C16.4375 24.125 16.4375 24.125 14 26 C10.375 26.4375 10.375 26.4375 7 26 C6.34 25.34 5.68 24.68 5 24 C4.67 24.66 4.34 25.32 4 26 C2.68 26 1.36 26 0 26 C0 17.42 0 8.84 0 0 Z " fill="#1C2236" transform="translate(129,70)"/>
<path d="M0 0 C0.66 0.33 1.32 0.66 2 1 C2.40729228 3.32156597 2.74438677 5.6568787 3 8 C3.886875 8.12375 4.77375 8.2475 5.6875 8.375 C8.71402798 8.94604301 11.1754987 9.8163078 14 11 C14.08160748 12.89510699 14.13946459 14.79124504 14.1875 16.6875 C14.23970703 18.27111328 14.23970703 18.27111328 14.29296875 19.88671875 C13.96063055 23.41836599 13.11678496 25.18255429 11 28 C8 30 8 30 4.75 30.0625 C-1.36256512 28.33060655 -5.64570676 23.3274069 -9 18 C-9 17.34 -9 16.68 -9 16 C-4.25 16.875 -4.25 16.875 -2 18 C-1.93941406 16.78441406 -1.87882812 15.56882813 -1.81640625 14.31640625 C-1.73201668 12.73175772 -1.6473679 11.14712298 -1.5625 9.5625 C-1.52318359 8.76005859 -1.48386719 7.95761719 -1.44335938 7.13085938 C-1.11328125 1.11328125 -1.11328125 1.11328125 0 0 Z " fill="#F9F9FA" transform="translate(433,192)"/>
<path d="M0 0 C3.78558365 1.72071984 5.48595079 3.15611251 7 7 C7.31096221 11.52888552 6.80424554 15.00078585 3.9375 18.5625 C0.13667878 20.42247634 -2.85741643 21.08575779 -7 20 C-10.0874681 17.42710991 -11.58386894 15.88916134 -12.44140625 11.99609375 C-12.65854308 8.30476763 -12.10708037 6.16775924 -10.125 3.0625 C-6.7586549 -0.20483495 -4.63724366 -0.36370538 0 0 Z " fill="#262A3B" transform="translate(198,76)"/>
<path d="M0 0 C2.5840684 2.13185643 3.75471521 3.60441415 4.33984375 6.93359375 C4.55142959 11.41075005 3.84120761 14.39385187 1 18 C-2.23655834 19.61827917 -5.50136714 19.56192191 -9 19 C-12 17.125 -12 17.125 -14 14 C-14.62961712 10.5510354 -14.64636093 7.44725831 -14 4 C-10.17214268 -1.231405 -6.08416088 -1.71943677 0 0 Z " fill="#212538" transform="translate(306,77)"/>
<path d="M0 0 C0.7734375 0.07605469 1.546875 0.15210937 2.34375 0.23046875 C5.07840728 0.96862805 5.98060553 1.3911158 7.5 3.8125 C7.71714241 6.62377043 7.78284276 9.2008345 7.6875 12 C7.66719727 13.12438477 7.66719727 13.12438477 7.64648438 14.27148438 C7.61118539 16.11879767 7.55737917 17.96574066 7.5 19.8125 C5.16666667 19.8125 2.83333333 19.8125 0.5 19.8125 C-0.634375 19.874375 -1.76875 19.93625 -2.9375 20 C-6.5 19.8125 -6.5 19.8125 -8.4375 18.6875 C-9.99754211 15.93448451 -9.89570119 13.9121593 -9.5 10.8125 C-6.46474514 8.78899676 -5.30573798 8.49125982 -1.8125 8.1875 C-1.00425781 8.11273438 -0.19601562 8.03796875 0.63671875 7.9609375 C1.55904297 7.88746094 1.55904297 7.88746094 2.5 7.8125 C2.17 6.8225 1.84 5.8325 1.5 4.8125 C-1.69902639 4.72363816 -4.42677456 4.90191469 -7.5 5.8125 C-7.5 4.4925 -7.5 3.1725 -7.5 1.8125 C-4.24139091 -0.35990606 -3.67949197 -0.42314158 0 0 Z " fill="#243449" transform="translate(377.5,76.1875)"/>
<path d="M0 0 C2.625 1.8125 2.625 1.8125 4 4 C4 4.99 4 5.98 4 7 C-0.75 6.25 -0.75 6.25 -3 4 C-5.58354218 3.83312552 -5.58354218 3.83312552 -8 4 C-8.33 5.65 -8.66 7.3 -9 9 C-7.84371094 9.39832031 -7.84371094 9.39832031 -6.6640625 9.8046875 C-5.66117187 10.15789062 -4.65828125 10.51109375 -3.625 10.875 C-2.12839844 11.39707031 -2.12839844 11.39707031 -0.6015625 11.9296875 C2 13 2 13 4 15 C4.56617647 21.22794118 4.56617647 21.22794118 2.625 23.875 C-1.36709563 26.63875851 -5.27150117 26.59513865 -10 26 C-13.0625 24.25 -13.0625 24.25 -15 22 C-15 20.68 -15 19.36 -15 18 C-13.68 18 -12.36 18 -11 18 C-10.34 18.99 -9.68 19.98 -9 21 C-6.79274927 21.36362818 -6.79274927 21.36362818 -4.375 21.1875 C-3.55773437 21.16042969 -2.74046875 21.13335937 -1.8984375 21.10546875 C-0.95871094 21.05326172 -0.95871094 21.05326172 0 21 C-0.08240116 19.03778262 -0.08240116 19.03778262 -1 17 C-3.44297579 15.77993909 -3.44297579 15.77993909 -6.375 15 C-10.55043352 13.7660988 -12.8415557 12.89698647 -15 9 C-14.9375 5.9375 -14.9375 5.9375 -14 3 C-9.83275819 -0.95281998 -5.46290577 -0.83486268 0 0 Z " fill="#202434" transform="translate(360,70)"/>
<path d="M0 0 C3.125 2.3125 3.125 2.3125 5 5 C5 5.99 5 6.98 5 8 C3.68 8 2.36 8 1 8 C0.566875 7.505 0.13375 7.01 -0.3125 6.5 C-2.07061798 4.63690172 -2.07061798 4.63690172 -5.5625 4.6875 C-9.06268472 4.63589512 -9.06268472 4.63589512 -11 7 C-11.35776166 9.5637893 -11.35776166 9.5637893 -11.3125 12.4375 C-11.32925781 13.40558594 -11.34601563 14.37367187 -11.36328125 15.37109375 C-11.20974265 18.01544629 -11.20974265 18.01544629 -9.66796875 19.8203125 C-7.04565376 21.67497087 -5.10994414 21.45353352 -2 21 C-0.9739266 19.68662604 0.02727325 18.35335895 1 17 C3.6875 16.75 3.6875 16.75 6 17 C4.64712489 21.42759127 3.04076435 23.67870984 -1 26 C-5.58764788 26.82427793 -8.90504399 26.65231422 -12.9375 24.25 C-17.12670277 19.67996062 -17.48365721 15.7636904 -17.39453125 9.703125 C-16.77785812 5.4779982 -15.12793255 3.83003421 -12 1 C-8.2824457 -0.85877715 -4.04767404 -0.57823915 0 0 Z " fill="#242839" transform="translate(177,70)"/>
<path d="M0 0 C2.671875 1.51171875 2.671875 1.51171875 5 4 C5.37233017 6.96672677 5.4808246 9.31856241 5.3125 12.25 C5.28994141 12.99507812 5.26738281 13.74015625 5.24414062 14.5078125 C5.18543561 16.339409 5.09575757 18.16996653 5 20 C3.68 20 2.36 20 1 20 C0.67 19.34 0.34 18.68 0 18 C-0.66 18.66 -1.32 19.32 -2 20 C-8.09583333 20.55416667 -8.09583333 20.55416667 -10.9375 18.8125 C-12.38718434 16.33950907 -12.42317323 14.82115488 -12 12 C-10.35703667 9.84589252 -9.40391002 9.09138551 -6.73828125 8.48828125 C-5.93777344 8.43027344 -5.13726562 8.37226562 -4.3125 8.3125 C-3.10013672 8.21388672 -3.10013672 8.21388672 -1.86328125 8.11328125 C-1.24839844 8.07589844 -0.63351563 8.03851563 0 8 C0 6.68 0 5.36 0 4 C-3.3 4.66 -6.6 5.32 -10 6 C-10 3 -10 3 -8.375 1.3125 C-5.27571098 -0.40026498 -3.49981139 -0.49997306 0 0 Z " fill="#21253B" transform="translate(119,76)"/>
<path d="M0 0 C2.8125 1.5625 2.8125 1.5625 5 4 C5.8125 7.75 5.8125 7.75 6 11 C1.38 11 -3.24 11 -8 11 C-7.01 12.65 -6.02 14.3 -5 16 C-1.54594998 16.54537632 1.61330515 15.77410168 5 15 C3.125 18.875 3.125 18.875 2 20 C-1.07637583 20.50213572 -3.92784382 20.53723614 -7 20 C-10.16664776 17.41498142 -11.5764456 15.94003044 -12.4375 11.99609375 C-12.66167019 8.30429097 -12.10710782 6.16780225 -10.125 3.0625 C-6.77678373 -0.18723932 -4.62344486 -0.45327891 0 0 Z " fill="#262939" transform="translate(239,76)"/>
<path d="M0 0 C2.4375 1.6875 2.4375 1.6875 4 4 C4 5.98 4 7.96 4 10 C-0.29 10 -4.58 10 -9 10 C-8.67 11.65 -8.34 13.3 -8 15 C-6.00045254 15.04254356 -3.99958364 15.04080783 -2 15 C-1.67 14.67 -1.34 14.34 -1 14 C0.66617115 13.95936168 2.33388095 13.957279 4 14 C2.25 17.875 2.25 17.875 0 19 C-4.74275933 19.46650092 -6.92860438 19.66962226 -11 17.125 C-13.78784156 12.76899756 -13.94575743 9.04403965 -13 4 C-9.19914125 -1.19450696 -6.10290719 -1.36789299 0 0 Z " fill="#1E2235" transform="translate(422,77)"/>
<path d="M0 0 C1.65 0 3.3 0 5 0 C5.33 0.66 5.66 1.32 6 2 C6.66 1.34 7.32 0.68 8 0 C14.46153846 0.46153846 14.46153846 0.46153846 17 3 C17.14517744 5.9093558 17.18630796 8.719946 17.125 11.625 C17.11597656 12.42679688 17.10695313 13.22859375 17.09765625 14.0546875 C17.07406223 16.03658523 17.03819065 18.01832981 17 20 C15.68 20 14.36 20 13 20 C12.67 15.38 12.34 10.76 12 6 C7.52297636 4.93462795 7.52297636 4.93462795 5 5 C5 9.95 5 14.9 5 20 C3.35 20 1.7 20 0 20 C0 13.4 0 6.8 0 0 Z " fill="#3A4045" transform="translate(314,76)"/>
<path d="M0 0 C0.99 0 1.98 0 3 0 C3 6.6 3 13.2 3 20 C-0.3 20 -3.6 20 -7 20 C-10 17 -10 17 -10.3984375 14.84375 C-10.39070313 14.0703125 -10.38296875 13.296875 -10.375 12.5 C-10.38273437 11.7265625 -10.39046875 10.953125 -10.3984375 10.15625 C-9.90810804 7.50270232 -9.13658984 6.6075295 -7 5 C-4.375 4.75 -4.375 4.75 -2 5 C-1.67 5.33 -1.34 5.66 -1 6 C-0.67 4.02 -0.34 2.04 0 0 Z " fill="#524F6A" transform="translate(112,315)"/>
<path d="M0 0 C6.93 0 13.86 0 21 0 C21 1.32 21 2.64 21 4 C18.36 4 15.72 4 13 4 C13 11.26 13 18.52 13 26 C11.35 26 9.7 26 8 26 C8 18.74 8 11.48 8 4 C5.36 4 2.72 4 0 4 C0 2.68 0 1.36 0 0 Z " fill="#2C2B39" transform="translate(86,70)"/>
<path d="M0 0 C0.88429688 -0.02578125 1.76859375 -0.0515625 2.6796875 -0.078125 C5.125 0.25 5.125 0.25 6.9296875 1.4765625 C8.46344505 3.75213743 8.46369376 5.15210166 8.375 7.875 C8.35953125 8.67164063 8.3440625 9.46828125 8.328125 10.2890625 C8.125 12.25 8.125 12.25 7.125 13.25 C5.12700428 13.34873816 3.12542842 13.37971799 1.125 13.375 C0.031875 13.37757813 -1.06125 13.38015625 -2.1875 13.3828125 C-4.875 13.25 -4.875 13.25 -5.875 12.25 C-5.97351171 10.41884117 -6.00472629 8.58380067 -6 6.75 C-6.00257813 5.7496875 -6.00515625 4.749375 -6.0078125 3.71875 C-5.77572728 -0.59530462 -3.86243226 0.06717274 0 0 Z " fill="#CEDBFA" transform="translate(370.875,173.75)"/>
<path d="M0 0 C2.8125 1.25 2.8125 1.25 5 3 C5.8125 5.1875 5.8125 5.1875 6 7 C1.125 6.125 1.125 6.125 0 5 C-2.5 4.83333333 -2.5 4.83333333 -5 5 C-6.89885096 6.89885096 -6.12367506 9.57247903 -6.1328125 12.08984375 C-6.11686861 14.08634367 -6.11686861 14.08634367 -5 16 C-3.02 16 -1.04 16 1 16 C1 15.34 1 14.68 1 14 C2.65 14 4.3 14 6 14 C3.25 18.875 3.25 18.875 1 20 C-2.01107177 20.34553283 -4.09312777 20.57248153 -7 20 C-10.0874681 17.42710991 -11.58386894 15.88916134 -12.44140625 11.99609375 C-12.65854308 8.30476763 -12.10708037 6.16775924 -10.125 3.0625 C-6.7586549 -0.20483495 -4.63724366 -0.36370538 0 0 Z " fill="#282C3C" transform="translate(260,76)"/>
<path d="M0 0 C3.96 0 7.92 0 12 0 C12 4.62 12 9.24 12 14 C8.04 14 4.08 14 0 14 C0 9.38 0 4.76 0 0 Z " fill="#FEFEFE" transform="translate(445,500)"/>
<path d="M0 0 C3.96 0 7.92 0 12 0 C12 4.62 12 9.24 12 14 C8.04 14 4.08 14 0 14 C0 9.38 0 4.76 0 0 Z " fill="#FEFEFE" transform="translate(445,399)"/>
<path d="M0 0 C1.875 1.125 1.875 1.125 3 3 C3.50030235 6.93094707 3.5996142 9.1005787 1.375 12.4375 C-1.7370662 14.48491197 -3.34394496 14.68551032 -7 14 C-9.4375 11.9375 -9.4375 11.9375 -11 9 C-11 5.16249192 -10.81388154 2.96460035 -8.3125 0 C-5.12832007 -1.37694267 -3.29075199 -0.980224 0 0 Z " fill="#444C6D" transform="translate(156,321)"/>
<path d="M0 0 C3.375 0.9375 3.375 0.9375 5.375 3.9375 C5.91968716 7.4461342 5.9952561 10.76995911 4.3125 13.9375 C1.20632725 15.54068593 -1.20490979 15.36501128 -4.625 14.9375 C-7.48076764 12.63446158 -7.60681881 11.08294949 -8.0625 7.4375 C-7.625 3.9375 -7.625 3.9375 -6.0625 1.4375 C-3.625 -0.0625 -3.625 -0.0625 0 0 Z " fill="#515468" transform="translate(230.625,320.0625)"/>
<path d="M0 0 C2.64 0 5.28 0 8 0 C8.33 1.32 8.66 2.64 9 4 C10.65 4 12.3 4 14 4 C14 4.66 14 5.32 14 6 C13.34 6 12.68 6 12 6 C12.01160156 7.07121094 12.02320313 8.14242188 12.03515625 9.24609375 C12.04453299 10.64322743 12.05363331 12.04036299 12.0625 13.4375 C12.07087891 14.14455078 12.07925781 14.85160156 12.08789062 15.58007812 C12.09653588 17.38693559 12.05220011 19.19387603 12 21 C11 22 11 22 7.875 22.1328125 C6.59625 22.13023437 5.3175 22.12765625 4 22.125 C2.72125 22.12757813 1.4425 22.13015625 0.125 22.1328125 C-3 22 -3 22 -4 21 C-4.07313567 18.46950598 -4.09247527 15.96695163 -4.0625 13.4375 C-4.05798828 12.72658203 -4.05347656 12.01566406 -4.04882812 11.28320312 C-4.03700864 9.52209987 -4.01907263 7.76103964 -4 6 C-4.66 6 -5.32 6 -6 6 C-6 5.34 -6 4.68 -6 4 C-4.35 4 -2.7 4 -1 4 C-0.67 2.68 -0.34 1.36 0 0 Z M-2 6 C-2 10.62 -2 15.24 -2 20 C1.96 20 5.92 20 10 20 C10 15.38 10 10.76 10 6 C6.04 6 2.08 6 -2 6 Z " fill="#EF4747" transform="translate(447,494)"/>
<path d="M0 0 C2.64 0 5.28 0 8 0 C8.33 1.32 8.66 2.64 9 4 C10.65 4 12.3 4 14 4 C14 4.66 14 5.32 14 6 C13.34 6 12.68 6 12 6 C12.01160156 7.07121094 12.02320313 8.14242188 12.03515625 9.24609375 C12.04453299 10.64322743 12.05363331 12.04036299 12.0625 13.4375 C12.07087891 14.14455078 12.07925781 14.85160156 12.08789062 15.58007812 C12.09653588 17.38693559 12.05220011 19.19387603 12 21 C11 22 11 22 7.875 22.1328125 C6.59625 22.13023437 5.3175 22.12765625 4 22.125 C2.72125 22.12757813 1.4425 22.13015625 0.125 22.1328125 C-3 22 -3 22 -4 21 C-4.07313567 18.46950598 -4.09247527 15.96695163 -4.0625 13.4375 C-4.05798828 12.72658203 -4.05347656 12.01566406 -4.04882812 11.28320312 C-4.03700864 9.52209987 -4.01907263 7.76103964 -4 6 C-4.66 6 -5.32 6 -6 6 C-6 5.34 -6 4.68 -6 4 C-4.35 4 -2.7 4 -1 4 C-0.67 2.68 -0.34 1.36 0 0 Z M-2 6 C-2 10.62 -2 15.24 -2 20 C1.96 20 5.92 20 10 20 C10 15.38 10 10.76 10 6 C6.04 6 2.08 6 -2 6 Z " fill="#EF4747" transform="translate(447,393)"/>
<path d="M0 0 C2.35546875 0.15234375 2.35546875 0.15234375 5 1 C6.91665101 4.52026733 7.80496831 8.14934233 9 12 C10.65 8.04 12.3 4.08 14 0 C15.32 0 16.64 0 18 0 C16.12275039 6.37732315 14.14328358 12.70695459 12 19 C10.02 19 8.04 19 6 19 C4.99619084 16.20964954 3.9968055 13.41785145 3 10.625 C2.57074219 9.43390625 2.57074219 9.43390625 2.1328125 8.21875 C1.86210937 7.45820312 1.59140625 6.69765625 1.3125 5.9140625 C1.06113281 5.2123291 0.80976563 4.5105957 0.55078125 3.78759766 C0 2 0 2 0 0 Z " fill="#20253C" transform="translate(388,77)"/>
<path d="M0 0 C3.4375 1 3.4375 1 5.375 2.8125 C6.4375 5 6.4375 5 6.4375 9 C2.8075 9 -0.8225 9 -4.5625 9 C-3.5725 10.485 -3.5725 10.485 -2.5625 12 C0.0775 11.67 2.7175 11.34 5.4375 11 C4.7775 12.32 4.1175 13.64 3.4375 15 C-2.8125 15.48076923 -2.8125 15.48076923 -6 13.4375 C-8.16646028 10.05782196 -8.12538002 7.94016013 -7.5625 4 C-5.30132583 0.38212133 -4.292718 0 0 0 Z " fill="#626475" transform="translate(182.5625,320)"/>
<path d="M0 0 C0.66 0 1.32 0 2 0 C2 0.99 2 1.98 2 3 C2.66 3 3.32 3 4 3 C4 3.66 4 4.32 4 5 C3.34 5 2.68 5 2 5 C2 7.31 2 9.62 2 12 C2.66 12 3.32 12 4 12 C4 12.66 4 13.32 4 14 C3.38125 13.835 2.7625 13.67 2.125 13.5 C-0.67431201 12.84133835 -2.08543006 13.01999427 -4.9375 13.6875 C-8 14 -8 14 -9.9375 13 C-11.58971281 9.88995237 -10.69377357 7.34272722 -10 4 C-6.56484998 3.37542727 -3.50935186 3 0 3 C0 2.01 0 1.02 0 0 Z " fill="#C5C5C6" transform="translate(167,173)"/>
<path d="M0 0 C3.375 0.9375 3.375 0.9375 5.375 3.9375 C5.375 5.5875 5.375 7.2375 5.375 8.9375 C2.075 8.9375 -1.225 8.9375 -4.625 8.9375 C-4.625 9.9275 -4.625 10.9175 -4.625 11.9375 C-1.28247276 12.01177838 1.1785914 12.00296953 4.375 10.9375 C3.715 12.2575 3.055 13.5775 2.375 14.9375 C-4.02596618 15.42059179 -4.02596618 15.42059179 -6.5625 13.375 C-8.03782332 9.99043473 -8.08174603 7.59146822 -7.625 3.9375 C-5.3368323 0.27643167 -4.34846249 -0.07497349 0 0 Z " fill="#6B738D" transform="translate(93.625,320.0625)"/>
<path d="M0 0 C6.75 0.75 6.75 0.75 9 3 C9.1953125 5.8203125 9.1953125 5.8203125 9.125 9.125 C9.10695313 10.22070312 9.08890625 11.31640625 9.0703125 12.4453125 C9.04710938 13.28835938 9.02390625 14.13140625 9 15 C7.37509046 15.02698189 5.75005367 15.04638757 4.125 15.0625 C2.76761719 15.07990234 2.76761719 15.07990234 1.3828125 15.09765625 C-1 15 -1 15 -3 14 C-3 12.02 -3 10.04 -3 8 C0.13498292 6.14223235 2.37471432 5.79859524 6 6 C5.67 5.01 5.34 4.02 5 3 C2.36 3.33 -0.28 3.66 -3 4 C-2.01 2.68 -1.02 1.36 0 0 Z " fill="#415374" transform="translate(59,320)"/>
<path d="M0 0 C0.66 1.65 1.32 3.3 2 5 C1.01 5 0.02 5 -1 5 C-1.33 4.34 -1.66 3.68 -2 3 C-3.98 3 -5.96 3 -8 3 C-8 3.99 -8 4.98 -8 6 C-7.36191406 6.27714844 -6.72382812 6.55429687 -6.06640625 6.83984375 C-5.24011719 7.20207031 -4.41382813 7.56429688 -3.5625 7.9375 C-2.73878906 8.29714844 -1.91507813 8.65679687 -1.06640625 9.02734375 C1 10 1 10 2 11 C2.28417861 13.69969684 2.32477191 15.41135091 1 17.8125 C-2.13059083 19.6712883 -5.44774828 19.55145843 -9 19 C-9.99 18.34 -10.98 17.68 -12 17 C-12 16.01 -12 15.02 -12 14 C-11.278125 14.350625 -10.55625 14.70125 -9.8125 15.0625 C-6.6877295 16.10409017 -5.11838004 15.89096572 -2 15 C-2 14.01 -2 13.02 -2 12 C-2.63808594 11.72285156 -3.27617188 11.44570313 -3.93359375 11.16015625 C-4.75988281 10.79792969 -5.58617187 10.43570312 -6.4375 10.0625 C-7.26121094 9.70285156 -8.08492187 9.34320313 -8.93359375 8.97265625 C-11 8 -11 8 -12 7 C-12.3125 4.625 -12.3125 4.625 -12 2 C-8.61439853 -2.23200183 -4.793365 -0.87878358 0 0 Z " fill="#3D4965" transform="translate(51,316)"/>
<path d="M0 0 C1.32 0 2.64 0 4 0 C4 1.65 4 3.3 4 5 C5.32 5 6.64 5 8 5 C8 5.99 8 6.98 8 8 C6.68 8 5.36 8 4 8 C4.33 11.96 4.66 15.92 5 20 C5.99 20.33 6.98 20.66 8 21 C8 21.99 8 22.98 8 24 C5.125 24.125 5.125 24.125 2 24 C0 22 0 22 -0.1953125 18.7421875 C-0.17210937 17.46601562 -0.14890625 16.18984375 -0.125 14.875 C-0.10695313 13.59367187 -0.08890625 12.31234375 -0.0703125 10.9921875 C-0.04710937 10.00476563 -0.02390625 9.01734375 0 8 C-0.99 8 -1.98 8 -3 8 C-3 7.01 -3 6.02 -3 5 C-2.01 5 -1.02 5 0 5 C0 3.35 0 1.7 0 0 Z " fill="#141835" transform="translate(271,72)"/>
<path d="M0 0 C2.875 1.8125 2.875 1.8125 5 4 C5 4.99 5 5.98 5 7 C4.01 7 3.02 7 2 7 C1.34 6.01 0.68 5.02 0 4 C-2.31 4.33 -4.62 4.66 -7 5 C-7.02688151 6.64574566 -7.04634123 8.29161413 -7.0625 9.9375 C-7.07410156 10.85402344 -7.08570313 11.77054687 -7.09765625 12.71484375 C-7.25949049 14.96593327 -7.25949049 14.96593327 -6 16 C-3.66702567 16.04092937 -1.33294775 16.04241723 1 16 C1.33 15.34 1.66 14.68 2 14 C2.99 14 3.98 14 5 14 C3.25 18.875 3.25 18.875 1 20 C-3.21416041 20.47707476 -5.32364792 20.43171409 -8.9375 18.125 C-11.82245211 13.75386044 -12.0361864 10.09736856 -11 5 C-7.92883052 0.48357429 -5.43434422 -1.01893954 0 0 Z " fill="#494A5B" transform="translate(137,315)"/>
<path d="M0 0 C0 0.66 0 1.32 0 2 C0.66 2 1.32 2 2 2 C1.44271087 5.34373475 0.64826111 8.03312999 -1 11 C-7.40818182 11.36272727 -7.40818182 11.36272727 -9.9375 9.8125 C-11.38718434 7.33950907 -11.42317323 5.82115488 -11 3 C-8.63169142 -1.2925593 -4.30785219 -0.21186158 0 0 Z " fill="#252835" transform="translate(118,85)"/>
<path d="M0 0 C1.32 0 2.64 0 4 0 C4 3.3 4 6.6 4 10 C4.66 10.33 5.32 10.66 6 11 C5.67 11.66 5.34 12.32 5 13 C4.74202425 16.95562822 4.90559811 19.59659693 7 23 C6.01 23 5.02 23 4 23 C4 23.99 4 24.98 4 26 C2.68 26 1.36 26 0 26 C0 17.42 0 8.84 0 0 Z " fill="#2A172C" transform="translate(129,70)"/>
<path d="M0 0 C2.31 0.33 4.62 0.66 7 1 C8.35384615 8.38461538 8.35384615 8.38461538 6.5625 11.5 C6.046875 11.995 5.53125 12.49 5 13 C2.625 12.6875 2.625 12.6875 0 12 C-2.31332486 8.53001271 -2.33957563 7.07490752 -2 3 C-1.34 2.01 -0.68 1.02 0 0 Z " fill="#E3EAEC" transform="translate(135,80)"/>
<path d="M0 0 C1.32 0 2.64 0 4 0 C4 8.58 4 17.16 4 26 C2.68 26 1.36 26 0 26 C0 17.42 0 8.84 0 0 Z " fill="#0F1741" transform="translate(219,70)"/>
<path d="M0 0 C1.32 0 2.64 0 4 0 C4 8.58 4 17.16 4 26 C2.68 26 1.36 26 0 26 C0 17.42 0 8.84 0 0 Z " fill="#2D172A" transform="translate(209,70)"/>
<path d="M0 0 C2.5 0.25 2.5 0.25 4.5 2.25 C5.05800294 9.280837 5.05800294 9.280837 3.3125 12.3125 C1.5 13.25 1.5 13.25 -1.125 13.0625 C-3.5 12.25 -3.5 12.25 -4.5 10.25 C-4.66796875 8.375 -4.66796875 8.375 -4.6875 6.25 C-4.70167969 5.54875 -4.71585938 4.8475 -4.73046875 4.125 C-4.34202978 0.96481851 -3.03116737 0.30311674 0 0 Z " fill="#ECF1F0" transform="translate(195.5,79.75)"/>
<path d="M0 0 C2.5 -0.3125 2.5 -0.3125 5 0 C7 2 7 2 7.265625 4.09375 C7.26046875 4.8878125 7.2553125 5.681875 7.25 6.5 C7.25515625 7.2940625 7.2603125 8.088125 7.265625 8.90625 C7 11 7 11 5 13 C1.70285207 12.67028521 0.3773161 12.3773161 -2 10 C-2.31537716 5.66356399 -2.44897847 3.67346771 0 0 Z " fill="#EAF1F3" transform="translate(298,80)"/>
<path d="M0 0 C1.875 0.8125 1.875 0.8125 3.875 2.8125 C4.125 6.3125 4.125 6.3125 3.875 9.8125 C1.875 11.8125 1.875 11.8125 -1.125 12.125 C-2.115 12.021875 -3.105 11.91875 -4.125 11.8125 C-6.43861802 8.34207297 -6.63520728 6.89415827 -6.125 2.8125 C-4.07702207 0.54509586 -3.08300551 -0.2720299 0 0 Z " fill="#F0635F" transform="translate(295.125,251.1875)"/>
<path d="M0 0 C2.31 0 4.62 0 7 0 C9 2 9 2 9.25 5.5 C9 9 9 9 7 11 C5.68 11 4.36 11 3 11 C2.67 12.32 2.34 13.64 2 15 C1.34 15 0.68 15 0 15 C0 10.05 0 5.1 0 0 Z " fill="#616E87" transform="translate(150,608)"/>
<path d="M0 0 C0.99 0 1.98 0 3 0 C3 1.32 3 2.64 3 4 C1.35 4.66 -0.3 5.32 -2 6 C-2.33 10.62 -2.66 15.24 -3 20 C-4.32 20 -5.64 20 -7 20 C-7 13.73 -7 7.46 -7 1 C-4.525 1.495 -4.525 1.495 -2 2 C-1.34 1.34 -0.68 0.68 0 0 Z " fill="#0F1A3E" transform="translate(438,76)"/>
<path d="M0 0 C3 0.25 3 0.25 5 2.25 C5.34490322 6.30261287 5.30163882 7.79754176 3 11.25 C0 11.625 0 11.625 -3 11.25 C-5.30163882 7.79754176 -5.34490322 6.30261287 -5 2.25 C-3 0.25 -3 0.25 0 0 Z " fill="#F05B5C" transform="translate(429,251.75)"/>
<path d="M0 0 C3 0.25 3 0.25 5 2.25 C5.34490322 6.30261287 5.30163882 7.79754176 3 11.25 C0 11.625 0 11.625 -3 11.25 C-5.30163882 7.79754176 -5.34490322 6.30261287 -5 2.25 C-3 0.25 -3 0.25 0 0 Z " fill="#F05B5C" transform="translate(370,251.75)"/>
<path d="M0 0 C6.0546875 -0.1953125 6.0546875 -0.1953125 8 0 C10 2 10 2 10.25 4.5 C10 7 10 7 8 9 C4.875 9.125 4.875 9.125 2 9 C2 10.98 2 12.96 2 15 C1.34 15 0.68 15 0 15 C0 10.05 0 5.1 0 0 Z " fill="#EF5262" transform="translate(75,248)"/>
<path d="M0 0 C3.625 0.375 3.625 0.375 7 1 C8.33359073 7.42548263 8.33359073 7.42548263 6.875 9.9375 C4.403308 11.33812547 2.79844834 11.35877543 0 11 C-2 9 -2 9 -2.25 5.5 C-2 2 -2 2 0 0 Z " fill="#626E85" transform="translate(403,608)"/>
<path d="M0 0 C3.625 0.375 3.625 0.375 7 1 C8.33359073 7.42548263 8.33359073 7.42548263 6.875 9.9375 C4.403308 11.33812547 2.79844834 11.35877543 0 11 C-2 9 -2 9 -2.25 5.5 C-2 2 -2 2 0 0 Z " fill="#626E85" transform="translate(163,608)"/>
<path d="M0 0 C0.66 0 1.32 0 2 0 C2 0.99 2 1.98 2 3 C3.98 3 5.96 3 8 3 C8 6.63 8 10.26 8 14 C5.66705225 14.04241723 3.33297433 14.04092937 1 14 C0 13 0 13 -0.09765625 10.93359375 C-0.08025391 9.69802734 -0.08025391 9.69802734 -0.0625 8.4375 C-0.05347656 7.61121094 -0.04445313 6.78492188 -0.03515625 5.93359375 C-0.02355469 5.29550781 -0.01195312 4.65742188 0 4 C-0.66 3.67 -1.32 3.34 -2 3 C-1.34 3 -0.68 3 0 3 C0 2.01 0 1.02 0 0 Z " fill="#F4C7BE" transform="translate(413,249)"/>
<path d="M0 0 C2 2 2 2 2.25 5.5 C2 9 2 9 0 11 C-3.625 10.625 -3.625 10.625 -7 10 C-8.33359073 3.57451737 -8.33359073 3.57451737 -6.875 1.0625 C-4.403308 -0.33812547 -2.79844834 -0.35877543 0 0 Z " fill="#948A87" transform="translate(131,176)"/>
<path d="M0 0 C0.99 0 1.98 0 3 0 C3.83739781 2.1234016 4.66980283 4.2487728 5.5 6.375 C5.9640625 7.55835938 6.428125 8.74171875 6.90625 9.9609375 C8 13 8 13 8 15 C7.34 15 6.68 15 6 15 C5.67 13.68 5.34 12.36 5 11 C2.69 11.33 0.38 11.66 -2 12 C-2.33 12.99 -2.66 13.98 -3 15 C-3.66 15 -4.32 15 -5 15 C-4.43174347 9.45949887 -2.37113483 4.96284034 0 0 Z " fill="#5C6983" transform="translate(195,604)"/>
<path d="M0 0 C1 1 1 1 1.25 4.4375 C1.1675 5.613125 1.085 6.78875 1 8 C-2 10 -2 10 -5.1875 9.625 C-6.5796875 9.315625 -6.5796875 9.315625 -8 9 C-9.32561852 2.61292897 -9.32561852 2.61292897 -7.9375 0 C-5.05932137 -1.48551155 -3.0547415 -0.79688909 0 0 Z " fill="#8E8588" transform="translate(186,177)"/>
<path d="M0 0 C0.66 1.32 1.32 2.64 2 4 C-0.64 3.67 -3.28 3.34 -6 3 C-6 3.66 -6 4.32 -6 5 C-3.36 5.99 -0.72 6.98 2 8 C2.125 10.375 2.125 10.375 2 13 C0 15 0 15 -3.4375 15.25 C-7 15 -7 15 -10 13 C-10 12.01 -10 11.02 -10 10 C-9.443125 10.33 -8.88625 10.66 -8.3125 11 C-5.69715478 12.1309601 -3.8193354 12.15662974 -1 12 C-1 11.34 -1 10.68 -1 10 C-2.11375 9.5875 -3.2275 9.175 -4.375 8.75 C-6.99320695 7.64453484 -7.83493089 7.25119213 -9.4375 4.8125 C-9.623125 4.214375 -9.80875 3.61625 -10 3 C-7.29536552 -0.8183075 -4.37912428 -0.24787496 0 0 Z " fill="#E1E9FB" transform="translate(416,160)"/>
<path d="M0 0 C2.31 0 4.62 0 7 0 C9 2 9 2 9.3125 4.9375 C9 8 9 8 7.8125 9.9375 C6 11 6 11 3.3125 10.6875 C2.549375 10.460625 1.78625 10.23375 1 10 C1 11.65 1 13.3 1 15 C0.67 15 0.34 15 0 15 C0 10.05 0 5.1 0 0 Z " fill="#5B6679" transform="translate(390,608)"/>
<path d="M0 0 C1.8125 2 1.8125 2 3 4 C0.69 3.67 -1.62 3.34 -4 3 C-4.33 3.99 -4.66 4.98 -5 6 C-2.36 6.66 0.28 7.32 3 8 C3.125 10.375 3.125 10.375 3 13 C1 15 1 15 -2.4375 15.25 C-6 15 -6 15 -9 13 C-9 12.34 -9 11.68 -9 11 C-6.36 11.33 -3.72 11.66 -1 12 C-1 11.34 -1 10.68 -1 10 C-3.31 9.01 -5.62 8.02 -8 7 C-8.1875 4.625 -8.1875 4.625 -8 2 C-4.77856724 -0.14762184 -3.7404533 -0.561068 0 0 Z " fill="#4A5167" transform="translate(264,320)"/>
<path d="M0 0 C3 -0.3125 3 -0.3125 6 0 C8 2 8 2 8.1953125 5.9140625 C8.18200376 7.48449351 8.15813602 9.05486221 8.125 10.625 C8.11597656 11.42679688 8.10695313 12.22859375 8.09765625 13.0546875 C8.07406223 15.03658523 8.03819065 17.01832981 8 19 C6.68 19 5.36 19 4 19 C3.67 14.38 3.34 9.76 3 5 C0.525 4.01 0.525 4.01 -2 3 C-1.34 2.01 -0.68 1.02 0 0 Z " fill="#1D1B2F" transform="translate(323,77)"/>
<path d="M0 0 C0.66 0 1.32 0 2 0 C2 4.29 2 8.58 2 13 C-1.375 13.125 -1.375 13.125 -5 13 C-7 11 -7 11 -7.25 8 C-7 5 -7 5 -5 3 C-3.68 3 -2.36 3 -1 3 C-0.67 2.01 -0.34 1.02 0 0 Z " fill="#608DF6" transform="translate(120,501)"/>
<path d="M0 0 C0.99 0.33 1.98 0.66 3 1 C3.99 0.79375 4.98 0.5875 6 0.375 C9 0 9 0 10.67578125 1.08984375 C12.57146452 3.82432492 12.29354462 5.90011668 12.1875 9.1875 C12.16042969 10.27417969 12.13335937 11.36085938 12.10546875 12.48046875 C12.07066406 13.31191406 12.03585938 14.14335937 12 15 C11.01 15 10.02 15 9 15 C8.67 11.37 8.34 7.74 8 4 C6.35 4 4.7 4 3 4 C2.67 7.63 2.34 11.26 2 15 C1.34 15 0.68 15 0 15 C0 10.05 0 5.1 0 0 Z " fill="#3D4967" transform="translate(240,320)"/>
<path d="M0 0 C3.5625 -0.25 3.5625 -0.25 7 0 C8 1 8 1 8.09765625 3.28515625 C8.08605469 4.20167969 8.07445312 5.11820313 8.0625 6.0625 C8.05347656 6.98160156 8.04445313 7.90070313 8.03515625 8.84765625 C8.02355469 9.55792969 8.01195312 10.26820313 8 11 C5.03 11 2.06 11 -1 11 C-1.33 9.35 -1.66 7.7 -2 6 C0.31 5.01 2.62 4.02 5 3 C3.68 2.67 2.36 2.34 1 2 C1 2.66 1 3.32 1 4 C0.01 3.67 -0.98 3.34 -2 3 C-1.34 2.01 -0.68 1.02 0 0 Z " fill="#ECE7F9" transform="translate(420,188)"/>
<path d="M0 0 C2.875 -0.125 2.875 -0.125 6 0 C8 2 8 2 8.1953125 4.1640625 C8.13020833 6.44270833 8.06510417 8.72135417 8 11 C5.03 11 2.06 11 -1 11 C-1.33 9.35 -1.66 7.7 -2 6 C1 4 1 4 5 4 C5 3.34 5 2.68 5 2 C2.69 2.66 0.38 3.32 -2 4 C-1.34 2.68 -0.68 1.36 0 0 Z " fill="#A4B4F3" transform="translate(422,164)"/>
<path d="M0 0 C1.32 0.33 2.64 0.66 4 1 C4.66 3.97 5.32 6.94 6 10 C6.66 10 7.32 10 8 10 C8.12375 9.46375 8.2475 8.9275 8.375 8.375 C9.12206016 5.5361714 10.05303364 2.77776798 11 0 C11.99 0 12.98 0 14 0 C10.92482916 10.55808656 10.92482916 10.55808656 9 15 C7.68 15 6.36 15 5 15 C4.16260219 12.8765984 3.33019717 10.7512272 2.5 8.625 C1.80390625 6.84996094 1.80390625 6.84996094 1.09375 5.0390625 C0 2 0 2 0 0 Z " fill="#45506C" transform="translate(70,320)"/>
<path d="M0 0 C3.63 0 7.26 0 11 0 C11 0.66 11 1.32 11 2 C8.03 2 5.06 2 2 2 C2 3.32 2 4.64 2 6 C4.64 6 7.28 6 10 6 C10 6.66 10 7.32 10 8 C7.36 8 4.72 8 2 8 C2 9.65 2 11.3 2 13 C4.97 13 7.94 13 11 13 C11 13.66 11 14.32 11 15 C7.37 15 3.74 15 0 15 C0 10.05 0 5.1 0 0 Z " fill="#798189" transform="translate(58,172)"/>
<path d="M0 0 C0.33 1.65 0.66 3.3 1 5 C0.67 4.01 0.34 3.02 0 2 C-2.31 2.66 -4.62 3.32 -7 4 C-7 4.99 -7 5.98 -7 7 C-4.03 7.495 -4.03 7.495 -1 8 C-1.33 8.99 -1.66 9.98 -2 11 C-8.3782235 11.36103152 -8.3782235 11.36103152 -10.9375 9.875 C-12.49754211 7.12198451 -12.39570119 5.0996593 -12 2 C-7.93192322 -0.71205119 -4.69252613 -1.56417538 0 0 Z " fill="#242132" transform="translate(380,85)"/>
<path d="M0 0 C3.0625 0.1875 3.0625 0.1875 5.0625 2.1875 C5.0625 3.5075 5.0625 4.8275 5.0625 6.1875 C2.7525 6.1875 0.4425 6.1875 -1.9375 6.1875 C-1.6075 6.8475 -1.2775 7.5075 -0.9375 8.1875 C1.0425 7.8575 3.0225 7.5275 5.0625 7.1875 C4.4025 8.5075 3.7425 9.8275 3.0625 11.1875 C0.1875 11.375 0.1875 11.375 -2.9375 11.1875 C-4.9375 8.1875 -4.9375 8.1875 -4.625 4.5625 C-3.74428643 0.23899701 -3.74428643 0.23899701 0 0 Z " fill="#C8D9FA" transform="translate(446.9375,163.8125)"/>
<path d="M0 0 C2.31243792 -0.02685412 4.6249627 -0.04632841 6.9375 -0.0625 C8.22527344 -0.07410156 9.51304687 -0.08570313 10.83984375 -0.09765625 C14 0 14 0 15 1 C15.07205511 2.68608966 15.08386068 4.37500659 15.0625 6.0625 C15.05347656 6.98160156 15.04445313 7.90070312 15.03515625 8.84765625 C15.02355469 9.55792969 15.01195312 10.26820313 15 11 C14.34 11 13.68 11 13 11 C13 8.03 13 5.06 13 2 C11.68 2 10.36 2 9 2 C9 4.97 9 7.94 9 11 C8.34 11 7.68 11 7 11 C7 8.03 7 5.06 7 2 C5.68 2.33 4.36 2.66 3 3 C2.67 5.64 2.34 8.28 2 11 C1.34 11 0.68 11 0 11 C0 7.37 0 3.74 0 0 Z " fill="#656578" transform="translate(372,608)"/>
<path d="M0 0 C3.3 0 6.6 0 10 0 C10 0.66 10 1.32 10 2 C7.36 2 4.72 2 2 2 C2 3.32 2 4.64 2 6 C4.64 6 7.28 6 10 6 C10 6.66 10 7.32 10 8 C7.36 8 4.72 8 2 8 C2 9.65 2 11.3 2 13 C4.97 13 7.94 13 11 13 C11 13.66 11 14.32 11 15 C7.37 15 3.74 15 0 15 C0 10.05 0 5.1 0 0 Z " fill="#4D637A" transform="translate(126,604)"/>
<path d="M0 0 C2.31243792 -0.02685412 4.6249627 -0.04632841 6.9375 -0.0625 C8.22527344 -0.07410156 9.51304687 -0.08570313 10.83984375 -0.09765625 C14 0 14 0 15 1 C15.07205511 2.68608966 15.08386068 4.37500659 15.0625 6.0625 C15.05347656 6.98160156 15.04445312 7.90070313 15.03515625 8.84765625 C15.02355469 9.55792969 15.01195312 10.26820313 15 11 C14.34 11 13.68 11 13 11 C13 8.03 13 5.06 13 2 C11.68 2 10.36 2 9 2 C9 4.97 9 7.94 9 11 C8.34 11 7.68 11 7 11 C7 8.03 7 5.06 7 2 C5.68 2.33 4.36 2.66 3 3 C2.67 5.64 2.34 8.28 2 11 C1.34 11 0.68 11 0 11 C0 7.37 0 3.74 0 0 Z " fill="#898995" transform="translate(230,176)"/>
<path d="M0 0 C3.375 1 3.375 1 4.8125 3.0625 C5.0909375 4.0215625 5.0909375 4.0215625 5.375 5 C4.385 5 3.395 5 2.375 5 C2.375 4.34 2.375 3.68 2.375 3 C0.395 3 -1.585 3 -3.625 3 C-3.625 5.64 -3.625 8.28 -3.625 11 C-0.24682575 11.84454356 2.04965243 12.10844919 5.375 11 C4.25 13 4.25 13 2.375 15 C-0.5625 15.5625 -0.5625 15.5625 -3.625 15 C-6.52148251 12.40841039 -7.49807907 10.7773907 -8.125 6.9375 C-7.625 4 -7.625 4 -6.0625 1.5625 C-3.625 0 -3.625 0 0 0 Z " fill="#5E5868" transform="translate(198.625,320)"/>
<path d="M0 0 C2.375 0.6875 2.375 0.6875 3.375 1.6875 C3.5625 4.625 3.5625 4.625 3.375 7.6875 C1.375 9.6875 1.375 9.6875 -1.125 9.9375 C-3.625 9.6875 -3.625 9.6875 -5.625 7.6875 C-5.9375 4.6875 -5.9375 4.6875 -5.625 1.6875 C-2.625 -0.3125 -2.625 -0.3125 0 0 Z " fill="#628FF6" transform="translate(82.625,403.3125)"/>
<path d="M0 0 C3 0.25 3 0.25 5 2.25 C5 3.57 5 4.89 5 6.25 C2.36 6.25 -0.28 6.25 -3 6.25 C-2.67 6.91 -2.34 7.57 -2 8.25 C0.31 8.25 2.62 8.25 5 8.25 C4.01 9.735 4.01 9.735 3 11.25 C0 11.625 0 11.625 -3 11.25 C-5.30163882 7.79754176 -5.34490322 6.30261287 -5 2.25 C-3 0.25 -3 0.25 0 0 Z " fill="#F0594F" transform="translate(151,251.75)"/>
<path d="M0 0 C3 0.25 3 0.25 5 2.25 C5 3.57 5 4.89 5 6.25 C2.36 6.25 -0.28 6.25 -3 6.25 C-2.67 6.91 -2.34 7.57 -2 8.25 C0.31 8.25 2.62 8.25 5 8.25 C4.01 9.735 4.01 9.735 3 11.25 C0 11.625 0 11.625 -3 11.25 C-5.30163882 7.79754176 -5.34490322 6.30261287 -5 2.25 C-3 0.25 -3 0.25 0 0 Z " fill="#F0594F" transform="translate(133,251.75)"/>
<path d="M0 0 C1.32 0 2.64 0 4 0 C4 6.27 4 12.54 4 19 C2.68 19 1.36 19 0 19 C0 12.73 0 6.46 0 0 Z " fill="#21172A" transform="translate(283,77)"/>
<path d="M0 0 C4.55555556 0.55555556 4.55555556 0.55555556 6 2 C6.04092937 4.33297433 6.04241723 6.66705225 6 9 C3.69 9.33 1.38 9.66 -1 10 C-3 7 -3 7 -2.75 4.4375 C-2 2 -2 2 0 0 Z " fill="#6C94F7" transform="translate(105,504)"/>
<path d="M0 0 C1 1 1 1 1.09765625 3.28515625 C1.08605469 4.20167969 1.07445313 5.11820312 1.0625 6.0625 C1.05347656 6.98160156 1.04445313 7.90070313 1.03515625 8.84765625 C1.02355469 9.55792969 1.01195313 10.26820313 1 11 C-1.64 11 -4.28 11 -7 11 C-7.33 9.35 -7.66 7.7 -8 6 C-5 4 -5 4 -1 4 C-1 3.01 -1 2.02 -1 1 C-2.98 1.33 -4.96 1.66 -7 2 C-7 1.34 -7 0.68 -7 0 C-4.31633121 -1.3418344 -2.84719317 -0.73004953 0 0 Z " fill="#EF5F61" transform="translate(113,252)"/>
<path d="M0 0 C1.99954746 -0.04254356 4.00041636 -0.04080783 6 0 C7 1 7 1 7.09765625 3.28515625 C7.08605469 4.20167969 7.07445312 5.11820313 7.0625 6.0625 C7.05347656 6.98160156 7.04445312 7.90070313 7.03515625 8.84765625 C7.02355469 9.55792969 7.01195312 10.26820313 7 11 C4.36 11 1.72 11 -1 11 C-1.33 9.35 -1.66 7.7 -2 6 C-1.030625 5.71125 -0.06125 5.4225 0.9375 5.125 C4.10664203 4.35785318 4.10664203 4.35785318 5 2 C3.35 2 1.7 2 0 2 C0 2.66 0 3.32 0 4 C-0.66 4 -1.32 4 -2 4 C-1.34 2.68 -0.68 1.36 0 0 Z " fill="#887F7E" transform="translate(220,176)"/>
<path d="M0 0 C0.33 1.65 0.66 3.3 1 5 C-1.64 5 -4.28 5 -7 5 C-6.67 5.66 -6.34 6.32 -6 7 C-2.535 6.505 -2.535 6.505 1 6 C0.34 7.32 -0.32 8.64 -1 10 C-3.31 9.67 -5.62 9.34 -8 9 C-9.32561852 2.61292897 -9.32561852 2.61292897 -7.9375 0 C-5.08594286 -1.47177143 -3.03295907 -0.74138999 0 0 Z " fill="#8D888A" transform="translate(256,177)"/>
<path d="M0 0 C2 2 2 2 2 6 C-0.31 6.33 -2.62 6.66 -5 7 C-5 7.66 -5 8.32 -5 9 C-2.69 8.34 -0.38 7.68 2 7 C1.34 8.32 0.68 9.64 0 11 C-4.44936709 11.36075949 -4.44936709 11.36075949 -6.8125 9.8125 C-8.42525784 7.35092224 -8.4334014 5.88934264 -8 3 C-5.84871852 -0.2835349 -3.77529378 -0.48401202 0 0 Z " fill="#9B9899" transform="translate(152,176)"/>
<path d="M0 0 C2 2 2 2 2 6 C-0.31 6.33 -2.62 6.66 -5 7 C-5 7.66 -5 8.32 -5 9 C-2.69 8.34 -0.38 7.68 2 7 C1.34 8.32 0.68 9.64 0 11 C-4.44936709 11.36075949 -4.44936709 11.36075949 -6.8125 9.8125 C-8.42525784 7.35092224 -8.4334014 5.88934264 -8 3 C-5.84871852 -0.2835349 -3.77529378 -0.48401202 0 0 Z " fill="#9B9899" transform="translate(96,176)"/>
<path d="M0 0 C2.375 0.75 2.375 0.75 3.375 1.75 C3.41563832 3.41617115 3.417721 5.08388095 3.375 6.75 C0.735 6.75 -1.905 6.75 -4.625 6.75 C-4.295 7.41 -3.965 8.07 -3.625 8.75 C-1.315 8.75 0.995 8.75 3.375 8.75 C3.045 9.74 2.715 10.73 2.375 11.75 C-0.5 11.875 -0.5 11.875 -3.625 11.75 C-5.625 9.75 -5.625 9.75 -5.9375 6.3125 C-5.625 2.75 -5.625 2.75 -4.4375 0.75 C-2.625 -0.25 -2.625 -0.25 0 0 Z " fill="#F2A3A5" transform="translate(98.625,251.25)"/>
<path d="M0 0 C0.99 0 1.98 0 3 0 C3 0.99 3 1.98 3 3 C3.99 3 4.98 3 6 3 C6 3.99 6 4.98 6 6 C5.01 6 4.02 6 3 6 C3 9.3 3 12.6 3 16 C3.99 16 4.98 16 6 16 C6 16.66 6 17.32 6 18 C4.33388095 18.042721 2.66617115 18.04063832 1 18 C0 17 0 17 -0.09765625 14.27734375 C-0.08605469 13.17519531 -0.07445312 12.07304687 -0.0625 10.9375 C-0.05347656 9.83277344 -0.04445312 8.72804688 -0.03515625 7.58984375 C-0.02355469 6.73519531 -0.01195312 5.88054687 0 5 C-0.66 5 -1.32 5 -2 5 C-2 4.34 -2 3.68 -2 3 C-1.34 3 -0.68 3 0 3 C0 2.01 0 1.02 0 0 Z " fill="#3F5976" transform="translate(208,317)"/>
<path d="M0 0 C2.375 0.75 2.375 0.75 3.375 1.75 C3.41563832 3.41617115 3.417721 5.08388095 3.375 6.75 C0.735 6.75 -1.905 6.75 -4.625 6.75 C-3.635 8.235 -3.635 8.235 -2.625 9.75 C-0.645 9.42 1.335 9.09 3.375 8.75 C3.045 9.74 2.715 10.73 2.375 11.75 C-0.5 11.875 -0.5 11.875 -3.625 11.75 C-5.625 9.75 -5.625 9.75 -5.9375 6.3125 C-5.625 2.75 -5.625 2.75 -4.4375 0.75 C-2.625 -0.25 -2.625 -0.25 0 0 Z " fill="#F2A3A5" transform="translate(183.625,251.25)"/>
<path d="M0 0 C2.4375 0.1875 2.4375 0.1875 3.4375 1.1875 C3.625 4.625 3.625 4.625 3.4375 8.1875 C2.7775 8.8475 2.1175 9.5075 1.4375 10.1875 C-1.1875 9.8125 -1.1875 9.8125 -3.5625 9.1875 C-4.1875 5.8125 -4.1875 5.8125 -4.5625 2.1875 C-2.5625 0.1875 -2.5625 0.1875 0 0 Z " fill="#EAEFEF" transform="translate(152.5625,322.8125)"/>
<path d="M0 0 C4.29 0 8.58 0 13 0 C13 0.66 13 1.32 13 2 C11.35 2 9.7 2 8 2 C8 6.29 8 10.58 8 15 C7.01 15 6.02 15 5 15 C5 10.71 5 6.42 5 2 C3.35 2 1.7 2 0 2 C0 1.34 0 0.68 0 0 Z " fill="#E1E9FA" transform="translate(407,184)"/>
<path d="M0 0 C0.33 0.99 0.66 1.98 1 3 C1.66 3 2.32 3 3 3 C3 3.66 3 4.32 3 5 C2.34 5 1.68 5 1 5 C1 7.31 1 9.62 1 12 C1.66 12 2.32 12 3 12 C3 12.66 3 13.32 3 14 C1.68 13.67 0.36 13.34 -1 13 C-1 10.36 -1 7.72 -1 5 C-2.32 5.33 -3.64 5.66 -5 6 C-5.33 8.64 -5.66 11.28 -6 14 C-6.66 14 -7.32 14 -8 14 C-8 10.37 -8 6.74 -8 3 C-5.36 3 -2.72 3 0 3 C0 2.01 0 1.02 0 0 Z " fill="#857A81" transform="translate(421,605)"/>
<path d="M0 0 C0.33 0.99 0.66 1.98 1 3 C1.66 3 2.32 3 3 3 C3 3.66 3 4.32 3 5 C2.34 5 1.68 5 1 5 C1 7.31 1 9.62 1 12 C1.66 12 2.32 12 3 12 C3 12.66 3 13.32 3 14 C1.68 13.67 0.36 13.34 -1 13 C-1 10.36 -1 7.72 -1 5 C-2.32 5.33 -3.64 5.66 -5 6 C-5.33 8.64 -5.66 11.28 -6 14 C-6.66 14 -7.32 14 -8 14 C-8 10.37 -8 6.74 -8 3 C-5.36 3 -2.72 3 0 3 C0 2.01 0 1.02 0 0 Z " fill="#857A81" transform="translate(181,605)"/>
<path d="M0 0 C2.625 0.375 2.625 0.375 5 1 C5.33 2.65 5.66 4.3 6 6 C4.02 6 2.04 6 0 6 C0.33 6.66 0.66 7.32 1 8 C2.65 7.67 4.3 7.34 6 7 C5.67 7.99 5.34 8.98 5 10 C2.125 10.1875 2.125 10.1875 -1 10 C-3 7 -3 7 -2.75 4.4375 C-2 2 -2 2 0 0 Z " fill="#7EA1F7" transform="translate(136,403)"/>
<path d="M0 0 C1.32 0.33 2.64 0.66 4 1 C2.68 2.65 1.36 4.3 0 6 C2.64 6 5.28 6 8 6 C8 6.33 8 6.66 8 7 C5.69 7 3.38 7 1 7 C1 8.32 1 9.64 1 11 C4.34252724 11.07427838 6.8035914 11.06546953 10 10 C9.34 11.32 8.68 12.64 8 14 C1.59903382 14.48309179 1.59903382 14.48309179 -0.9375 12.4375 C-2.38073056 9.12655931 -2.32494847 6.57443322 -2 3 C-1.34 2.01 -0.68 1.02 0 0 Z " fill="#3E4960" transform="translate(88,321)"/>
<path d="M0 0 C1.99954746 -0.04254356 4.00041636 -0.04080783 6 0 C7 1 7 1 7.09765625 3.28515625 C7.08605469 4.20167969 7.07445312 5.11820312 7.0625 6.0625 C7.05347656 6.98160156 7.04445312 7.90070313 7.03515625 8.84765625 C7.02355469 9.55792969 7.01195312 10.26820313 7 11 C3.625 11.125 3.625 11.125 0 11 C-0.66 10.34 -1.32 9.68 -2 9 C-1.625 6.875 -1.625 6.875 -1 5 C2.465 4.505 2.465 4.505 6 4 C5.67 3.34 5.34 2.68 5 2 C3.02 2 1.04 2 -1 2 C-0.67 1.34 -0.34 0.68 0 0 Z " fill="#EF4D47" transform="translate(235,252)"/>
<path d="M0 0 C1.99954746 -0.04254356 4.00041636 -0.04080783 6 0 C7 1 7 1 7.09765625 3.28515625 C7.08605469 4.20167969 7.07445312 5.11820312 7.0625 6.0625 C7.05347656 6.98160156 7.04445312 7.90070313 7.03515625 8.84765625 C7.02355469 9.55792969 7.01195312 10.26820313 7 11 C3.625 11.125 3.625 11.125 0 11 C-0.66 10.34 -1.32 9.68 -2 9 C-1.625 6.875 -1.625 6.875 -1 5 C2.465 4.505 2.465 4.505 6 4 C5.67 3.34 5.34 2.68 5 2 C3.02 2 1.04 2 -1 2 C-0.67 1.34 -0.34 0.68 0 0 Z " fill="#EF4D47" transform="translate(205,252)"/>
<path d="M0 0 C3.125 0.375 3.125 0.375 6 1 C6.33 2.65 6.66 4.3 7 6 C4.69 6 2.38 6 0 6 C0 6.66 0 7.32 0 8 C1.98 7.67 3.96 7.34 6 7 C5.67 7.99 5.34 8.98 5 10 C2.625 10.125 2.625 10.125 0 10 C-2 8 -2 8 -2.25 5 C-2 2 -2 2 0 0 Z " fill="#7CA0F7" transform="translate(88,504)"/>
<path d="M0 0 C0.99 0 1.98 0 3 0 C3 1.32 3 2.64 3 4 C3.78375 3.95875 4.5675 3.9175 5.375 3.875 C8 4 8 4 10 6 C10.125 9.625 10.125 9.625 10 13 C8.02 13.99 8.02 13.99 6 15 C6.33 12.36 6.66 9.72 7 7 C5.35 7.33 3.7 7.66 2 8 C1.67 10.31 1.34 12.62 1 15 C0.67 15 0.34 15 0 15 C0 10.05 0 5.1 0 0 Z " fill="#CDE3FB" transform="translate(430,184)"/>
<path d="M0 0 C0.66 0 1.32 0 2 0 C2 1.98 2 3.96 2 6 C7.28 6 12.56 6 18 6 C18 4.02 18 2.04 18 0 C18.66 0 19.32 0 20 0 C20.04241723 2.33294775 20.04092937 4.66702567 20 7 C18.4779041 8.5220959 17.11789918 8.12959521 15 8.1328125 C14.195625 8.13410156 13.39125 8.13539063 12.5625 8.13671875 C11.716875 8.13285156 10.87125 8.12898437 10 8.125 C9.154375 8.12886719 8.30875 8.13273438 7.4375 8.13671875 C6.633125 8.13542969 5.82875 8.13414062 5 8.1328125 C4.2575 8.13168457 3.515 8.13055664 2.75 8.12939453 C1 8 1 8 0 7 C-0.04092937 4.66702567 -0.04241723 2.33294775 0 0 Z " fill="#4B596D" transform="translate(331,614)"/>
<path d="M0 0 C0.66 0 1.32 0 2 0 C2 1.98 2 3.96 2 6 C7.28 6 12.56 6 18 6 C18 4.02 18 2.04 18 0 C18.66 0 19.32 0 20 0 C20.04241723 2.33294775 20.04092937 4.66702567 20 7 C18.4779041 8.5220959 17.11789918 8.12959521 15 8.1328125 C14.195625 8.13410156 13.39125 8.13539063 12.5625 8.13671875 C11.716875 8.13285156 10.87125 8.12898437 10 8.125 C9.154375 8.12886719 8.30875 8.13273438 7.4375 8.13671875 C6.633125 8.13542969 5.82875 8.13414062 5 8.1328125 C4.2575 8.13168457 3.515 8.13055664 2.75 8.12939453 C1 8 1 8 0 7 C-0.04092937 4.66702567 -0.04241723 2.33294775 0 0 Z " fill="#4B596D" transform="translate(90,614)"/>
<path d="M0 0 C0.66 0 1.32 0 2 0 C2 1.98 2 3.96 2 6 C7.28 6 12.56 6 18 6 C18 4.02 18 2.04 18 0 C18.66 0 19.32 0 20 0 C20.04241723 2.33294775 20.04092937 4.66702567 20 7 C18.4779041 8.5220959 17.11789918 8.12959521 15 8.1328125 C14.195625 8.13410156 13.39125 8.13539063 12.5625 8.13671875 C11.716875 8.13285156 10.87125 8.12898437 10 8.125 C9.154375 8.12886719 8.30875 8.13273438 7.4375 8.13671875 C6.633125 8.13542969 5.82875 8.13414062 5 8.1328125 C4.2575 8.13168457 3.515 8.13055664 2.75 8.12939453 C1 8 1 8 0 7 C-0.04092937 4.66702567 -0.04241723 2.33294775 0 0 Z " fill="#4085F6" transform="translate(387,507)"/>
<path d="M0 0 C0.66 0 1.32 0 2 0 C2 1.98 2 3.96 2 6 C7.28 6 12.56 6 18 6 C18 4.02 18 2.04 18 0 C18.66 0 19.32 0 20 0 C20.04241723 2.33294775 20.04092937 4.66702567 20 7 C18.4779041 8.5220959 17.11789918 8.12959521 15 8.1328125 C14.195625 8.13410156 13.39125 8.13539063 12.5625 8.13671875 C11.716875 8.13285156 10.87125 8.12898438 10 8.125 C9.154375 8.12886719 8.30875 8.13273437 7.4375 8.13671875 C6.633125 8.13542969 5.82875 8.13414062 5 8.1328125 C4.2575 8.13168457 3.515 8.13055664 2.75 8.12939453 C1 8 1 8 0 7 C-0.04092937 4.66702567 -0.04241723 2.33294775 0 0 Z " fill="#4085F6" transform="translate(387,406)"/>
<path d="M0 0 C2.5 0.125 2.5 0.125 3.5 1.125 C3.6875 4.5625 3.6875 4.5625 3.5 8.125 C2.84 8.785 2.18 9.445 1.5 10.125 C-2.03571429 9.58928571 -2.03571429 9.58928571 -3.5 8.125 C-3.625 4.625 -3.625 4.625 -3.5 1.125 C-2.5 0.125 -2.5 0.125 0 0 Z " fill="#F3F6F6" transform="translate(229.5,322.875)"/>
<path d="M0 0 C2.5 0.125 2.5 0.125 3.5 1.125 C3.6875 4.5625 3.6875 4.5625 3.5 8.125 C2.84 8.785 2.18 9.445 1.5 10.125 C-2.03571429 9.58928571 -2.03571429 9.58928571 -3.5 8.125 C-3.625 4.625 -3.625 4.625 -3.5 1.125 C-2.5 0.125 -2.5 0.125 0 0 Z " fill="#F2F5F3" transform="translate(108.5,322.875)"/>
<path d="M0 0 C1.4540625 0.0309375 1.4540625 0.0309375 2.9375 0.0625 C3.2675 1.0525 3.5975 2.0425 3.9375 3.0625 C0.9675 2.5675 0.9675 2.5675 -2.0625 2.0625 C-2.0625 2.7225 -2.0625 3.3825 -2.0625 4.0625 C0.9075 4.5575 0.9075 4.5575 3.9375 5.0625 C4.5625 6.9375 4.5625 6.9375 4.9375 9.0625 C2.9375 11.0625 2.9375 11.0625 -0.1875 11.1875 C-1.610625 11.125625 -1.610625 11.125625 -3.0625 11.0625 C-3.3925 9.7425 -3.7225 8.4225 -4.0625 7.0625 C-3.4025 7.0625 -2.7425 7.0625 -2.0625 7.0625 C-2.0625 7.7225 -2.0625 8.3825 -2.0625 9.0625 C-0.7425 9.0625 0.5775 9.0625 1.9375 9.0625 C1.9375 8.4025 1.9375 7.7425 1.9375 7.0625 C0.2875 6.7325 -1.3625 6.4025 -3.0625 6.0625 C-3.44468767 4.40635343 -3.77645102 2.73792976 -4.0625 1.0625 C-3.0625 0.0625 -3.0625 0.0625 0 0 Z " fill="#E6EEFC" transform="translate(446.0625,187.9375)"/>
<path d="M0 0 C0.66 0 1.32 0 2 0 C2 1.32 2 2.64 2 4 C3.175625 3.690625 3.175625 3.690625 4.375 3.375 C5.674375 3.189375 5.674375 3.189375 7 3 C9 5 9 5 9.1953125 7.3828125 C9.16050781 8.74019531 9.16050781 8.74019531 9.125 10.125 C9.10695313 11.03507812 9.08890625 11.94515625 9.0703125 12.8828125 C9.04710937 13.58148438 9.02390625 14.28015625 9 15 C8.34 15 7.68 15 7 15 C6.67 12.03 6.34 9.06 6 6 C5.01 6 4.02 6 3 6 C2.67 8.97 2.34 11.94 2 15 C1.34 15 0.68 15 0 15 C0 10.05 0 5.1 0 0 Z " fill="#F05F6B" transform="translate(323,248)"/>
<path d="M0 0 C0.763125 0.20625 1.52625 0.4125 2.3125 0.625 C2.6425 2.275 2.9725 3.925 3.3125 5.625 C1.0025 5.625 -1.3075 5.625 -3.6875 5.625 C-3.6875 6.285 -3.6875 6.945 -3.6875 7.625 C-1.7075 7.625 0.2725 7.625 2.3125 7.625 C1.9825 8.285 1.6525 8.945 1.3125 9.625 C-1.0625 9.75 -1.0625 9.75 -3.6875 9.625 C-5.6875 7.625 -5.6875 7.625 -6 4.625 C-5.896875 3.635 -5.79375 2.645 -5.6875 1.625 C-2.6875 -0.375 -2.6875 -0.375 0 0 Z " fill="#638CF6" transform="translate(110.6875,403.375)"/>
<path d="M0 0 C0.99 0 1.98 0 3 0 C3 6.6 3 13.2 3 20 C2.01 20 1.02 20 0 20 C0 13.4 0 6.8 0 0 Z " fill="#545278" transform="translate(169,315)"/>
<path d="M0 0 C0.99 0 1.98 0 3 0 C3 6.6 3 13.2 3 20 C2.01 20 1.02 20 0 20 C0 13.4 0 6.8 0 0 Z " fill="#695D64" transform="translate(162,315)"/>
<path d="M0 0 C4.875 0.875 4.875 0.875 6 2 C6.14115161 4.67058851 6.04247107 7.32432238 6 10 C3.69 10 1.38 10 -1 10 C-1.33 8.35 -1.66 6.7 -2 5 C-0.02 4.67 1.96 4.34 4 4 C4 3.34 4 2.68 4 2 C2.35 2.33 0.7 2.66 -1 3 C-0.67 2.01 -0.34 1.02 0 0 Z " fill="#94AEF8" transform="translate(68,504)"/>
<path d="M0 0 C2.86697492 1.28519565 4.97607712 2.57129254 7 5 C7 5.66 7 6.32 7 7 C5.68 6.34 4.36 5.68 3 5 C2.67 7.97 2.34 10.94 2 14 C1.34 14 0.68 14 0 14 C-0.33 11.03 -0.66 8.06 -1 5 C-2.98 5.99 -2.98 5.99 -5 7 C-3.70700306 4.11562221 -2.34058637 2.12780579 0 0 Z " fill="#505E71" transform="translate(340,602)"/>
<path d="M0 0 C0.66 0 1.32 0 2 0 C2.33 2.97 2.66 5.94 3 9 C4.32 8.34 5.64 7.68 7 7 C5.70700306 9.88437779 4.34058637 11.87219421 2 14 C-0.86697492 12.71480435 -2.97607712 11.42870746 -5 9 C-5 8.34 -5 7.68 -5 7 C-3.02 7.99 -3.02 7.99 -1 9 C-0.67 6.03 -0.34 3.06 0 0 Z " fill="#515E71" transform="translate(99,602)"/>
<path d="M0 0 C0.66 0 1.32 0 2 0 C2.33 2.97 2.66 5.94 3 9 C4.32 8.34 5.64 7.68 7 7 C5.70700306 9.88437779 4.34058637 11.87219421 2 14 C-0.86697492 12.71480435 -2.97607712 11.42870746 -5 9 C-5 8.34 -5 7.68 -5 7 C-3.02 7.99 -3.02 7.99 -1 9 C-0.67 6.03 -0.34 3.06 0 0 Z " fill="#478AF6" transform="translate(396,495)"/>
<path d="M0 0 C0.66 0 1.32 0 2 0 C2.33 2.97 2.66 5.94 3 9 C4.32 8.34 5.64 7.68 7 7 C5.70700306 9.88437779 4.34058637 11.87219421 2 14 C-0.86697492 12.71480435 -2.97607712 11.42870746 -5 9 C-5 8.34 -5 7.68 -5 7 C-3.02 7.99 -3.02 7.99 -1 9 C-0.67 6.03 -0.34 3.06 0 0 Z " fill="#478AF6" transform="translate(396,394)"/>
<path d="M0 0 C0.33 0 0.66 0 1 0 C1.22786458 2.05078125 1.45572917 4.1015625 1.68359375 6.15234375 C1.81886614 8.01140229 1.81886614 8.01140229 3 9 C5.33297433 9.04092937 7.66705225 9.04241723 10 9 C10.33 8.34 10.66 7.68 11 7 C11.99 7 12.98 7 14 7 C12.25 11.875 12.25 11.875 10 13 C3.8564425 13.45507833 3.8564425 13.45507833 0.7578125 11.80859375 C-1 10 -1 10 -1.171875 7.51953125 C-1.03265625 6.62621094 -0.8934375 5.73289062 -0.75 4.8125 C-0.62109375 3.91144531 -0.4921875 3.01039063 -0.359375 2.08203125 C-0.24078125 1.39496094 -0.1221875 0.70789063 0 0 Z " fill="#495874" transform="translate(128,322)"/>
<path d="M0 0 C2.375 -0.125 2.375 -0.125 5 0 C7 2 7 2 7.1953125 3.9453125 C7.13020833 5.96354167 7.06510417 7.98177083 7 10 C4.36 10 1.72 10 -1 10 C-1.33 8.68 -1.66 7.36 -2 6 C-0.68 5.67 0.64 5.34 2 5 C1.01 5.495 1.01 5.495 0 6 C0 6.66 0 7.32 0 8 C1.65 8 3.3 8 5 8 C4.67 6.02 4.34 4.04 4 2 C2.35 2.33 0.7 2.66 -1 3 C-0.67 2.01 -0.34 1.02 0 0 Z " fill="#6C9DF8" transform="translate(126,504)"/>
<path d="M0 0 C1 1 1 1 1.09765625 3.28515625 C1.08605469 4.20167969 1.07445312 5.11820312 1.0625 6.0625 C1.05347656 6.98160156 1.04445313 7.90070313 1.03515625 8.84765625 C1.02355469 9.55792969 1.01195312 10.26820313 1 11 C0.34 11 -0.32 11 -1 11 C-1.33 8.03 -1.66 5.06 -2 2 C-2.99 2 -3.98 2 -5 2 C-5.33 4.97 -5.66 7.94 -6 11 C-6.66 11 -7.32 11 -8 11 C-8 7.37 -8 3.74 -8 0 C-4.3147485 -0.92131287 -3.34188735 -1.15237495 0 0 Z " fill="#F06864" transform="translate(445,252)"/>
<path d="M0 0 C6.15234375 -0.09765625 6.15234375 -0.09765625 8 0 C9 1 9 1 9.09765625 3.28515625 C9.08605469 4.20167969 9.07445312 5.11820313 9.0625 6.0625 C9.05347656 6.98160156 9.04445312 7.90070313 9.03515625 8.84765625 C9.02355469 9.55792969 9.01195312 10.26820313 9 11 C8.34 11 7.68 11 7 11 C7 8.03 7 5.06 7 2 C5.68 2.33 4.36 2.66 3 3 C2.67 5.64 2.34 8.28 2 11 C1.34 11 0.68 11 0 11 C0 7.37 0 3.74 0 0 Z " fill="#9C8B84" transform="translate(189,176)"/>
<path d="M0 0 C6.15234375 -0.09765625 6.15234375 -0.09765625 8 0 C9 1 9 1 9.09765625 3.28515625 C9.08605469 4.20167969 9.07445313 5.11820313 9.0625 6.0625 C9.05347656 6.98160156 9.04445313 7.90070313 9.03515625 8.84765625 C9.02355469 9.55792969 9.01195313 10.26820313 9 11 C8.34 11 7.68 11 7 11 C7 8.03 7 5.06 7 2 C5.68 2.33 4.36 2.66 3 3 C2.67 5.64 2.34 8.28 2 11 C1.34 11 0.68 11 0 11 C0 7.37 0 3.74 0 0 Z " fill="#9C8B84" transform="translate(71,176)"/>
<path d="M0 0 C3.375 -0.125 3.375 -0.125 7 0 C9 2 9 2 9.1953125 4.1640625 C9.17210937 4.97617188 9.14890625 5.78828125 9.125 6.625 C9.10695312 7.44226563 9.08890625 8.25953125 9.0703125 9.1015625 C9.03550781 10.04128906 9.03550781 10.04128906 9 11 C8.34 11 7.68 11 7 11 C7 8.03 7 5.06 7 2 C5.68 2.33 4.36 2.66 3 3 C2.67 5.64 2.34 8.28 2 11 C1.34 11 0.68 11 0 11 C0 7.37 0 3.74 0 0 Z " fill="#828A9C" transform="translate(207,176)"/>
<path d="M0 0 C0.33 0.99 0.66 1.98 1 3 C1.33 2.01 1.66 1.02 2 0 C4.875 -0.125 4.875 -0.125 8 0 C10 2 10 2 10.1953125 4.1640625 C10.17210937 4.97617188 10.14890625 5.78828125 10.125 6.625 C10.10695313 7.44226563 10.08890625 8.25953125 10.0703125 9.1015625 C10.03550781 10.04128906 10.03550781 10.04128906 10 11 C9.67 11 9.34 11 9 11 C9 9.02 9 7.04 9 5 C6.36 5 3.72 5 1 5 C1 6.98 1 8.96 1 11 C0.67 11 0.34 11 0 11 C0 7.37 0 3.74 0 0 Z " fill="#2D69EB" transform="translate(367,175)"/>
<path d="M0 0 C1.875 0.75 1.875 0.75 2.875 2.75 C1.225 2.75 -0.425 2.75 -2.125 2.75 C-2.455 3.41 -2.785 4.07 -3.125 4.75 C-0.815 5.41 1.495 6.07 3.875 6.75 C3 10.625 3 10.625 1.875 11.75 C-0.12458364 11.79080783 -2.12545254 11.79254356 -4.125 11.75 C-4.455 10.76 -4.785 9.77 -5.125 8.75 C-2.815 9.08 -0.505 9.41 1.875 9.75 C1.02933261 7.47826908 1.02933261 7.47826908 -1.625 6.875 C-4.125 5.75 -4.125 5.75 -4.9375 3.625 C-4.999375 3.00625 -5.06125 2.3875 -5.125 1.75 C-2.125 -0.25 -2.125 -0.25 0 0 Z " fill="#F06767" transform="translate(122.125,251.25)"/>
<path d="M0 0 C3.375 -0.125 3.375 -0.125 7 0 C7.66 0.66 8.32 1.32 9 2 C8.9765625 4.1640625 8.9765625 4.1640625 8.625 6.625 C8.45871094 7.85089844 8.45871094 7.85089844 8.2890625 9.1015625 C8.14597656 10.04128906 8.14597656 10.04128906 8 11 C7.34 11 6.68 11 6 11 C6 7.7 6 4.4 6 1 C5.01 1.33 4.02 1.66 3 2 C2.67 4.97 2.34 7.94 2 11 C1.34 11 0.68 11 0 11 C0 7.37 0 3.74 0 0 Z " fill="#F1676A" transform="translate(246,252)"/>
<path d="M0 0 C0.78375 0.04125 1.5675 0.0825 2.375 0.125 C3.035 1.445 3.695 2.765 4.375 4.125 C3.715 4.125 3.055 4.125 2.375 4.125 C2.375 3.465 2.375 2.805 2.375 2.125 C1.055 2.455 -0.265 2.785 -1.625 3.125 C-1.625 4.775 -1.625 6.425 -1.625 8.125 C-0.305 8.455 1.015 8.785 2.375 9.125 C2.375 8.465 2.375 7.805 2.375 7.125 C3.035 7.125 3.695 7.125 4.375 7.125 C3.715 8.445 3.055 9.765 2.375 11.125 C0 11.25 0 11.25 -2.625 11.125 C-4.625 9.125 -4.625 9.125 -4.875 5.625 C-4.58138251 1.51435512 -4.25902123 0.20281053 0 0 Z " fill="#8F898E" transform="translate(117.625,175.875)"/>
<path d="M0 0 C0.99 0 1.98 0 3 0 C3.66 1.65 4.32 3.3 5 5 C5.45375 4.175 5.9075 3.35 6.375 2.5 C6.91125 1.675 7.4475 0.85 8 0 C8.66 0 9.32 0 10 0 C9.01 3.63 8.02 7.26 7 11 C6.01 11 5.02 11 4 11 C2.68 7.37 1.36 3.74 0 0 Z " fill="#E0E9FA" transform="translate(431,164)"/>
<path d="M0 0 C1.67542976 0.28604898 3.34385343 0.61781233 5 1 C5 2.98 5 4.96 5 7 C3.125 8.0625 3.125 8.0625 1 9 C0.34 8.67 -0.32 8.34 -1 8 C-1.04241723 5.66705225 -1.04092937 3.33297433 -1 1 C-0.67 0.67 -0.34 0.34 0 0 Z " fill="#F6EFF2" transform="translate(427,253)"/>
<path d="M0 0 C1.67542976 0.28604898 3.34385343 0.61781233 5 1 C5 2.98 5 4.96 5 7 C3.125 8.0625 3.125 8.0625 1 9 C0.34 8.67 -0.32 8.34 -1 8 C-1.04241723 5.66705225 -1.04092937 3.33297433 -1 1 C-0.67 0.67 -0.34 0.34 0 0 Z " fill="#F6EFF2" transform="translate(368,253)"/>
<path d="M0 0 C1.67542976 0.28604898 3.34385343 0.61781233 5 1 C5 3.31 5 5.62 5 8 C3.125 8.625 3.125 8.625 1 9 C-1 7 -1 7 -1.1875 3.9375 C-1 1 -1 1 0 0 Z " fill="#F6EEF2" transform="translate(292,253)"/>
<path d="M0 0 C0.66 0 1.32 0 2 0 C2.66 1.65 3.32 3.3 4 5 C4.45375 4.175 4.9075 3.35 5.375 2.5 C5.91125 1.675 6.4475 0.85 7 0 C7.66 0 8.32 0 9 0 C5.90009699 10.09117362 5.90009699 10.09117362 3 14 C2.34 14 1.68 14 1 14 C1 13.34 1 12.68 1 12 C1.66 12 2.32 12 3 12 C2.01 8.04 1.02 4.08 0 0 Z " fill="#548DF7" transform="translate(134,504)"/>
<path d="M0 0 C2.97 0.495 2.97 0.495 6 1 C6 3.97 6 6.94 6 10 C5.34 9.01 4.68 8.02 4 7 C1.94074861 6.27617533 1.94074861 6.27617533 0 6 C0 6.99 0 7.98 0 9 C0.99 9.33 1.98 9.66 3 10 C1.35 9.67 -0.3 9.34 -2 9 C-1.67 7.68 -1.34 6.36 -1 5 C0.65 4.67 2.3 4.34 4 4 C4 3.34 4 2.68 4 2 C2.35 2.33 0.7 2.66 -1 3 C-0.67 2.01 -0.34 1.02 0 0 Z " fill="#5D8CF6" transform="translate(58,403)"/>
<path d="M0 0 C2.875 -0.125 2.875 -0.125 6 0 C8 2 8 2 8.1953125 3.9453125 C8.13020833 5.96354167 8.06510417 7.98177083 8 10 C7.34 10 6.68 10 6 10 C6 7.36 6 4.72 6 2 C4.68 2 3.36 2 2 2 C2 4.64 2 7.28 2 10 C1.34 10 0.68 10 0 10 C0 6.7 0 3.4 0 0 Z " fill="#5990F7" transform="translate(67,403)"/>
<path d="M0 0 C1.67542976 0.28604898 3.34385343 0.61781233 5 1 C4.67 1.66 4.34 2.32 4 3 C2.68 2.67 1.36 2.34 0 2 C0 2.66 0 3.32 0 4 C1.65 4.33 3.3 4.66 5 5 C5.5625 6.9375 5.5625 6.9375 6 9 C5 10 5 10 1.9375 10.0625 C0.968125 10.041875 -0.00125 10.02125 -1 10 C-1.33 9.01 -1.66 8.02 -2 7 C0.475 7.495 0.475 7.495 3 8 C3.33 7.34 3.66 6.68 4 6 C2.35 5.67 0.7 5.34 -1 5 C-1 1 -1 1 0 0 Z " fill="#638FF6" transform="translate(58,504)"/>
<path d="M0 0 C1.67542976 0.28604898 3.34385343 0.61781233 5 1 C4.67 1.66 4.34 2.32 4 3 C2.68 2.67 1.36 2.34 0 2 C0 2.66 0 3.32 0 4 C1.65 4.33 3.3 4.66 5 5 C5.33 6.32 5.66 7.64 6 9 C3.69 9.33 1.38 9.66 -1 10 C-1.33 9.01 -1.66 8.02 -2 7 C0.475 7.495 0.475 7.495 3 8 C3.33 7.34 3.66 6.68 4 6 C2.35 5.67 0.7 5.34 -1 5 C-1 1 -1 1 0 0 Z " fill="#5F90F6" transform="translate(146,403)"/>
<path d="M0 0 C0.66 1.65 1.32 3.3 2 5 C1.01 5 0.02 5 -1 5 C-1.33 4.34 -1.66 3.68 -2 3 C-4.64 3 -7.28 3 -10 3 C-10.66 4.32 -11.32 5.64 -12 7 C-12.3259574 3.98489402 -12.43138108 2.53922634 -10.5 0.125 C-6.74124159 -1.56644129 -4.01932504 -0.73687626 0 0 Z " fill="#63535D" transform="translate(51,316)"/>
<path d="M0 0 C-0.875 4.875 -0.875 4.875 -2 6 C-3.66617115 6.04063832 -5.33388095 6.042721 -7 6 C-7.33 4.35 -7.66 2.7 -8 1 C-5.29120665 -0.35439668 -2.99066732 -0.06501451 0 0 Z " fill="#E2E1DC" transform="translate(120,87)"/>
<path d="M0 0 C0.99 0.33 1.98 0.66 3 1 C3 1.66 3 2.32 3 3 C4.32 2.01 5.64 1.02 7 0 C7.66 0.33 8.32 0.66 9 1 C8.34 1.66 7.68 2.32 7 3 C7.36276645 5.82957829 8.09694764 8.29084291 9 11 C6 10 6 10 4 8 C3.01 9.485 3.01 9.485 2 11 C1.34 11 0.68 11 0 11 C0.350625 10.4225 0.70125 9.845 1.0625 9.25 C2.1724449 6.58613224 1.94589945 5.66571663 1 3 C0.67 2.01 0.34 1.02 0 0 Z " fill="#5A6580" transform="translate(139,608)"/>
<path d="M0 0 C0.66 0.33 1.32 0.66 2 1 C1.125 5.875 1.125 5.875 0 7 C-7.45864662 7.36090226 -7.45864662 7.36090226 -11 5 C-11 4.01 -11 3.02 -11 2 C-10.278125 2.350625 -9.55625 2.70125 -8.8125 3.0625 C-5.6877295 4.10409017 -4.11838004 3.89096572 -1 3 C-0.67 2.01 -0.34 1.02 0 0 Z " fill="#48495C" transform="translate(50,328)"/>
<path d="M0 0 C6.875 0.875 6.875 0.875 8 2 C8.07179964 3.51928038 8.08392007 5.04167482 8.0625 6.5625 C8.05347656 7.38878906 8.04445313 8.21507812 8.03515625 9.06640625 C8.02355469 9.70449219 8.01195313 10.34257812 8 11 C7.01 11.495 7.01 11.495 6 12 C5.67 9.03 5.34 6.06 5 3 C2.36 3.33 -0.28 3.66 -3 4 C-2.01 2.68 -1.02 1.36 0 0 Z " fill="#49485B" transform="translate(59,320)"/>
<path d="M0 0 C0.86625 0.3403125 0.86625 0.3403125 1.75 0.6875 C1.75 1.3475 1.75 2.0075 1.75 2.6875 C0.96625 2.873125 0.1825 3.05875 -0.625 3.25 C-3.64376342 4.52711627 -3.64376342 4.52711627 -4.5625 8.3125 C-4.9028125 9.983125 -4.9028125 9.983125 -5.25 11.6875 C-5.91 11.0275 -6.57 10.3675 -7.25 9.6875 C-7.11265864 5.91061259 -7.02235941 3.53975866 -4.4375 0.6875 C-2.25 -0.3125 -2.25 -0.3125 0 0 Z " fill="#5B5762" transform="translate(152.25,320.3125)"/>
<path d="M0 0 C0.99 0.103125 1.98 0.20625 3 0.3125 C3.66 1.3025 4.32 2.2925 5 3.3125 C2.69 2.9825 0.38 2.6525 -2 2.3125 C-2 4.2925 -2 6.2725 -2 8.3125 C1.13349732 9.35699911 1.98968256 9.24673645 5 8.3125 C4.01 9.7975 4.01 9.7975 3 11.3125 C0 11.6875 0 11.6875 -3 11.3125 C-5.30163882 7.86004176 -5.34490322 6.36511287 -5 2.3125 C-3 0.3125 -3 0.3125 0 0 Z " fill="#EF5C5D" transform="translate(358,251.6875)"/>
<path d="M0 0 C0.99 0 1.98 0 3 0 C3 0.66 3 1.32 3 2 C2.01 2 1.02 2 0 2 C0 2.99 0 3.98 0 5 C0.99 5.33 1.98 5.66 3 6 C2.01 6 1.02 6 0 6 C0 9.3 0 12.6 0 16 C-0.66 16 -1.32 16 -2 16 C-2 12.7 -2 9.4 -2 6 C-2.66 5.67 -3.32 5.34 -4 5 C-3.34 5 -2.68 5 -2 5 C-1.7834375 4.0409375 -1.7834375 4.0409375 -1.5625 3.0625 C-1 1 -1 1 0 0 Z " fill="#F06855" transform="translate(285,247)"/>
<path d="M0 0 C-0.875 4.875 -0.875 4.875 -2 6 C-3.66617115 6.04063832 -5.33388095 6.042721 -7 6 C-7.33 4.68 -7.66 3.36 -8 2 C-4.77208445 -0.1519437 -3.71599191 -0.20086443 0 0 Z " fill="#E3ECEC" transform="translate(380,87)"/>
<path d="M0 0 C0.94875 0.04125 1.8975 0.0825 2.875 0.125 C2.875 1.115 2.875 2.105 2.875 3.125 C1.225 2.795 -0.425 2.465 -2.125 2.125 C-2.125 4.105 -2.125 6.085 -2.125 8.125 C1.00849732 9.16949911 1.86468256 9.05923645 4.875 8.125 C3.885 9.61 3.885 9.61 2.875 11.125 C-0.125 11.5 -0.125 11.5 -3.125 11.125 C-5.42663882 7.67254176 -5.46990322 6.17761287 -5.125 2.125 C-3.125 0.125 -3.125 0.125 0 0 Z " fill="#EF5A5B" transform="translate(405.125,251.875)"/>
<path d="M0 0 C2.97 0.495 2.97 0.495 6 1 C6.042721 2.66611905 6.04063832 4.33382885 6 6 C5 7 5 7 2.4375 7.0625 C1.2309375 7.0315625 1.2309375 7.0315625 0 7 C0 4.69 0 2.38 0 0 Z " fill="#F6EEEB" transform="translate(77,249)"/>
<path d="M0 0 C2.5625 0.1875 2.5625 0.1875 4.5625 2.1875 C4.5625 3.1775 4.5625 4.1675 4.5625 5.1875 C1.5925 5.1875 -1.3775 5.1875 -4.4375 5.1875 C-3.20220588 0.24632353 -3.20220588 0.24632353 0 0 Z " fill="#D7DEDE" transform="translate(417.4375,79.8125)"/>
<path d="M0 0 C1.67542976 0.28604898 3.34385343 0.61781233 5 1 C5 2.65 5 4.3 5 6 C3.34385343 6.38218767 1.67542976 6.71395102 0 7 C-1 6 -1 6 -1.125 3.5 C-1 1 -1 1 0 0 Z " fill="#DFE4E4" transform="translate(404,610)"/>
<path d="M0 0 C1.67542976 0.28604898 3.34385343 0.61781233 5 1 C5 2.65 5 4.3 5 6 C3.34385343 6.38218767 1.67542976 6.71395102 0 7 C-1 6 -1 6 -1.125 3.5 C-1 1 -1 1 0 0 Z " fill="#DFE4E4" transform="translate(164,610)"/>
<path d="M0 0 C0 3.3 0 6.6 0 10 C-0.66 10 -1.32 10 -2 10 C-2 7.03 -2 4.06 -2 1 C-3.32 1 -4.64 1 -6 1 C-6 3.97 -6 6.94 -6 10 C-6.33 10 -6.66 10 -7 10 C-7 6.7 -7 3.4 -7 0 C-4.3333581 -1.33332095 -2.83319697 -0.67102033 0 0 Z " fill="#697794" transform="translate(387,609)"/>
<path d="M0 0 C1.67542976 0.28604898 3.34385343 0.61781233 5 1 C5 2.65 5 4.3 5 6 C3.34385343 6.38218767 1.67542976 6.71395102 0 7 C-1 6 -1 6 -1.125 3.5 C-1 1 -1 1 0 0 Z " fill="#F5FCFB" transform="translate(180,178)"/>
<path d="M0 0 C1.67542976 0.28604898 3.34385343 0.61781233 5 1 C5 2.65 5 4.3 5 6 C3.34385343 6.38218767 1.67542976 6.71395102 0 7 C-1 6 -1 6 -1.125 3.5 C-1 1 -1 1 0 0 Z " fill="#F1F9FC" transform="translate(126,178)"/>
<path d="M0 0 C1.65 0.33 3.3 0.66 5 1 C5 2.65 5 4.3 5 6 C3.35 6.33 1.7 6.66 0 7 C-1.125 2.25 -1.125 2.25 0 0 Z " fill="#CFDEE9" transform="translate(392,610)"/>
<path d="M0 0 C0.33 0.66 0.66 1.32 1 2 C2.98 1.67 4.96 1.34 7 1 C7.33 2.98 7.66 4.96 8 7 C6.35 7 4.7 7 3 7 C2.67 6.34 2.34 5.68 2 5 C1.34 5.99 0.68 6.98 0 8 C0 5.36 0 2.72 0 0 Z " fill="#FEFBFD" transform="translate(123,505)"/>
<path d="M0 0 C0.66 0 1.32 0 2 0 C2 0.99 2 1.98 2 3 C2.66 3 3.32 3 4 3 C4 3.66 4 4.32 4 5 C3.34 5 2.68 5 2 5 C2 7.31 2 9.62 2 12 C2.66 12 3.32 12 4 12 C4 12.66 4 13.32 4 14 C2.68 13.67 1.36 13.34 0 13 C-0.19551338 11.39679026 -0.38111983 9.79237014 -0.5625 8.1875 C-0.71912109 6.84751953 -0.71912109 6.84751953 -0.87890625 5.48046875 C-1 3 -1 3 0 0 Z " fill="#A39283" transform="translate(83,173)"/>
<path d="M0 0 C0.66 0 1.32 0 2 0 C2 0.99 2 1.98 2 3 C2.66 3.33 3.32 3.66 4 4 C3.34 4 2.68 4 2 4 C2 6.64 2 9.28 2 12 C2.99 12 3.98 12 5 12 C5 12.66 5 13.32 5 14 C3.35 13.67 1.7 13.34 0 13 C-0.19551338 11.39679026 -0.38111983 9.79237014 -0.5625 8.1875 C-0.71912109 6.84751953 -0.71912109 6.84751953 -0.87890625 5.48046875 C-1 3 -1 3 0 0 Z " fill="#F0705E" transform="translate(316,249)"/>
<path d="M0 0 C0.66 0 1.32 0 2 0 C2 0.99 2 1.98 2 3 C2.66 3 3.32 3 4 3 C4 3.66 4 4.32 4 5 C3.34 5 2.68 5 2 5 C2 7.31 2 9.62 2 12 C2.66 12 3.32 12 4 12 C4 12.66 4 13.32 4 14 C2.68 13.67 1.36 13.34 0 13 C-0.19551338 11.39679026 -0.38111983 9.79237014 -0.5625 8.1875 C-0.71912109 6.84751953 -0.71912109 6.84751953 -0.87890625 5.48046875 C-1 3 -1 3 0 0 Z " fill="#A19182" transform="translate(167,173)"/>
<path d="M0 0 C0.66 0 1.32 0 2 0 C2.66 1.98 3.32 3.96 4 6 C4.99 4.02 5.98 2.04 7 0 C7.66 0.33 8.32 0.66 9 1 C7.68 3.97 6.36 6.94 5 10 C4.34 10 3.68 10 3 10 C0 3.375 0 3.375 0 0 Z " fill="#5E90F7" transform="translate(76,504)"/>
<path d="M0 0 C0.66 0 1.32 0 2 0 C2 0.66 2 1.32 2 2 C2.66 2 3.32 2 4 2 C4 2.66 4 3.32 4 4 C3.34 4 2.68 4 2 4 C2 5.98 2 7.96 2 10 C2.66 10 3.32 10 4 10 C4 10.66 4 11.32 4 12 C2.68 11.67 1.36 11.34 0 11 C0 8.69 0 6.38 0 4 C-0.66 4 -1.32 4 -2 4 C-2 3.34 -2 2.68 -2 2 C-1.34 2 -0.68 2 0 2 C0 1.34 0 0.68 0 0 Z " fill="#6098F7" transform="translate(89,401)"/>
<path d="M0 0 C0.66 0.66 1.32 1.32 2 2 C1.625 4.625 1.625 4.625 1 7 C0.67 6.34 0.34 5.68 0 5 C-0.99 5.66 -1.98 6.32 -3 7 C-5.125 6.8125 -5.125 6.8125 -7 6 C-7.33 5.01 -7.66 4.02 -8 3 C-5.36 3 -2.72 3 0 3 C0 2.01 0 1.02 0 0 Z " fill="#F5E1EE" transform="translate(187,255)"/>
<path d="M0 0 C2.31 0.33 4.62 0.66 7 1 C7 2.32 7 3.64 7 5 C4.36 5 1.72 5 -1 5 C-0.67 3.35 -0.34 1.7 0 0 Z " fill="#F2A6AA" transform="translate(149,253)"/>
<path d="M0 0 C2.31 0.33 4.62 0.66 7 1 C7 2.32 7 3.64 7 5 C4.36 5 1.72 5 -1 5 C-0.67 3.35 -0.34 1.7 0 0 Z " fill="#F2A6AA" transform="translate(131,253)"/>
<path d="M0 0 C0.33 0.99 0.66 1.98 1 3 C3.31 3 5.62 3 8 3 C8.33 2.01 8.66 1.02 9 0 C9 1.32 9 2.64 9 4 C6.36 4 3.72 4 1 4 C1.33 4.66 1.66 5.32 2 6 C4.31 6 6.62 6 9 6 C8.67 6.99 8.34 7.98 8 9 C5.125 9.125 5.125 9.125 2 9 C0 7 0 7 -0.125 3.375 C-0.08375 2.26125 -0.0425 1.1475 0 0 Z " fill="#EF5D5C" transform="translate(93,254)"/>
<path d="M0 0 C0 3.3 0 6.6 0 10 C-1.32 9.67 -2.64 9.34 -4 9 C-4 6.36 -4 3.72 -4 1 C-2 0 -2 0 0 0 Z " fill="#F5EAF9" transform="translate(322,252)"/>
<path d="M0 0 C0.66 0 1.32 0 2 0 C2 0.99 2 1.98 2 3 C2.66 3.33 3.32 3.66 4 4 C3.34 4 2.68 4 2 4 C2 6.64 2 9.28 2 12 C2.66 12 3.32 12 4 12 C4 12.66 4 13.32 4 14 C2.68 13.67 1.36 13.34 0 13 C0 10.03 0 7.06 0 4 C-0.66 3.67 -1.32 3.34 -2 3 C-1.34 3 -0.68 3 0 3 C0 2.01 0 1.02 0 0 Z " fill="#EF576A" transform="translate(413,249)"/>
<path d="M0 0 C0.99 0 1.98 0 3 0 C2.54803755 1.60597325 2.08817673 3.20972508 1.625 4.8125 C1.36976562 5.70582031 1.11453125 6.59914063 0.8515625 7.51953125 C0 10 0 10 -2 13 C-2.66 12.67 -3.32 12.34 -4 12 C-3.52309796 10.37433394 -3.04340334 8.74948689 -2.5625 7.125 C-2.29566406 6.22007812 -2.02882813 5.31515625 -1.75390625 4.3828125 C-1 2 -1 2 0 0 Z " fill="#59596F" transform="translate(81,320)"/>
<path d="M0 0 C1.32 0 2.64 0 4 0 C4 2.31 4 4.62 4 7 C2.35 6.67 0.7 6.34 -1 6 C-1.042721 4.33388095 -1.04063832 2.66617115 -1 1 C-0.67 0.67 -0.34 0.34 0 0 Z " fill="#DEE4E7" transform="translate(153,610)"/>
<path d="M0 0 C0.66 0 1.32 0 2 0 C2 0.66 2 1.32 2 2 C2.66 2 3.32 2 4 2 C4 2.66 4 3.32 4 4 C3.34 4 2.68 4 2 4 C2 5.98 2 7.96 2 10 C2.66 10 3.32 10 4 10 C4 10.66 4 11.32 4 12 C2.68 11.67 1.36 11.34 0 11 C-0.19491452 9.54263913 -0.38069358 8.08405407 -0.5625 6.625 C-0.66691406 5.81289063 -0.77132812 5.00078125 -0.87890625 4.1640625 C-1 2 -1 2 0 0 Z " fill="#618BF6" transform="translate(97,502)"/>
<path d="M0 0 C0.66 0 1.32 0 2 0 C2 0.66 2 1.32 2 2 C2.66 2 3.32 2 4 2 C4 2.66 4 3.32 4 4 C3.34 4 2.68 4 2 4 C2 5.98 2 7.96 2 10 C2.66 10 3.32 10 4 10 C4 10.66 4 11.32 4 12 C2.68 11.67 1.36 11.34 0 11 C-0.19491452 9.54263913 -0.38069358 8.08405407 -0.5625 6.625 C-0.66691406 5.81289063 -0.77132812 5.00078125 -0.87890625 4.1640625 C-1 2 -1 2 0 0 Z " fill="#6A8AF6" transform="translate(154,401)"/>
<path d="M0 0 C0.66 0 1.32 0 2 0 C2 0.66 2 1.32 2 2 C2.66 2 3.32 2 4 2 C4 2.66 4 3.32 4 4 C3.34 4 2.68 4 2 4 C2 5.98 2 7.96 2 10 C2.66 10 3.32 10 4 10 C4 10.66 4 11.32 4 12 C2.68 11.67 1.36 11.34 0 11 C-0.19491452 9.54263913 -0.38069358 8.08405407 -0.5625 6.625 C-0.66691406 5.81289063 -0.77132812 5.00078125 -0.87890625 4.1640625 C-1 2 -1 2 0 0 Z " fill="#618BF6" transform="translate(128,401)"/>
<path d="M0 0 C2.31 0.33 4.62 0.66 7 1 C7 2.32 7 3.64 7 5 C4.36 5 1.72 5 -1 5 C-0.67 3.35 -0.34 1.7 0 0 Z " fill="#F2ACB2" transform="translate(391,253)"/>
<path d="M0 0 C2.31 0.33 4.62 0.66 7 1 C7 2.32 7 3.64 7 5 C4.36 5 1.72 5 -1 5 C-0.67 3.35 -0.34 1.7 0 0 Z " fill="#F2ACB2" transform="translate(338,253)"/>
<path d="M0 0 C2.31 0.33 4.62 0.66 7 1 C7 2.32 7 3.64 7 5 C4.36 5 1.72 5 -1 5 C-0.67 3.35 -0.34 1.7 0 0 Z " fill="#F2ACB2" transform="translate(267,253)"/>
<path d="M0 0 C2.31 0.66 4.62 1.32 7 2 C6.67 2.99 6.34 3.98 6 5 C5.39671875 4.9278125 4.7934375 4.855625 4.171875 4.78125 C3.37265625 4.6884375 2.5734375 4.595625 1.75 4.5 C0.96109375 4.4071875 0.1721875 4.314375 -0.640625 4.21875 C-3.26890397 3.93845381 -3.26890397 3.93845381 -7 4 C-7 3.34 -7 2.68 -7 2 C-4.69 2 -2.38 2 0 2 C0 1.34 0 0.68 0 0 Z " fill="#F4EEFC" transform="translate(143,407)"/>
<path d="M0 0 C0.33 0.99 0.66 1.98 1 3 C3.31 3 5.62 3 8 3 C8.33 2.01 8.66 1.02 9 0 C9 1.32 9 2.64 9 4 C6.36 4 3.72 4 1 4 C1.99 5.485 1.99 5.485 3 7 C4.98 6.67 6.96 6.34 9 6 C8.67 6.99 8.34 7.98 8 9 C5.125 9.125 5.125 9.125 2 9 C0 7 0 7 -0.125 3.375 C-0.08375 2.26125 -0.0425 1.1475 0 0 Z " fill="#EF5554" transform="translate(178,254)"/>
<path d="M0 0 C0.33 0 0.66 0 1 0 C1.66 2.31 2.32 4.62 3 7 C5.97 7.495 5.97 7.495 9 8 C8.67 8.66 8.34 9.32 8 10 C4.625 10.125 4.625 10.125 1 10 C0.34 9.34 -0.32 8.68 -1 8 C-0.96712417 5.27130593 -0.43602229 2.7033382 0 0 Z " fill="#4C5E7B" transform="translate(104,325)"/>
<path d="M0 0 C0.7734375 0.495 0.7734375 0.495 1.5625 1 C4.78026512 2.32010877 7.5570528 2.13242105 11 2 C11.33 1.34 11.66 0.68 12 0 C11.125 3.875 11.125 3.875 10 5 C3.53846154 5.35897436 3.53846154 5.35897436 0 3 C0 2.01 0 1.02 0 0 Z " fill="#EAF0FC" transform="translate(406,170)"/>
<path d="M0 0 C0.33 0 0.66 0 1 0 C1 3.63 1 7.26 1 11 C-1.0625 9.3125 -1.0625 9.3125 -3 7 C-2.83849795 3.60845705 -2.41703243 2.41703243 0 0 Z " fill="#D1E2EF" transform="translate(148,608)"/>
<path d="M0 0 C1.98 0 3.96 0 6 0 C6.33 1.32 6.66 2.64 7 4 C4.36 4 1.72 4 -1 4 C-0.67 2.68 -0.34 1.36 0 0 Z " fill="#ECF2F3" transform="translate(233,80)"/>
<path d="M0 0 C2.64 0 5.28 0 8 0 C7.67 1.32 7.34 2.64 7 4 C1.25 4.125 1.25 4.125 -1 3 C-0.67 2.01 -0.34 1.02 0 0 Z " fill="#F69696" transform="translate(447,494)"/>
<path d="M0 0 C2.64 0 5.28 0 8 0 C7.67 1.32 7.34 2.64 7 4 C1.25 4.125 1.25 4.125 -1 3 C-0.67 2.01 -0.34 1.02 0 0 Z " fill="#F69696" transform="translate(447,393)"/>
<path d="M0 0 C0 0.66 0 1.32 0 2 C-0.99 2.33 -1.98 2.66 -3 3 C-3.33 5.97 -3.66 8.94 -4 12 C-4.66 12 -5.32 12 -6 12 C-6 8.37 -6 4.74 -6 1 C-2 0 -2 0 0 0 Z " fill="#F05E69" transform="translate(196,251)"/>
<path d="M0 0 C3.69230769 0.69230769 3.69230769 0.69230769 5 2 C5.07205511 3.68608966 5.08386068 5.37500659 5.0625 7.0625 C5.05347656 7.98160156 5.04445313 8.90070313 5.03515625 9.84765625 C5.02355469 10.55792969 5.01195312 11.26820313 5 12 C4.34 12 3.68 12 3 12 C2.96261719 11.37351562 2.92523438 10.74703125 2.88671875 10.1015625 C2.82097656 9.28429687 2.75523437 8.46703125 2.6875 7.625 C2.62949219 6.81289063 2.57148438 6.00078125 2.51171875 5.1640625 C2.17009472 2.62078662 2.17009472 2.62078662 -1 1 C-0.67 0.67 -0.34 0.34 0 0 Z " fill="#F06861" transform="translate(256,251)"/>
<path d="M0 0 C3.69230769 0.69230769 3.69230769 0.69230769 5 2 C5.07205511 3.68608966 5.08386068 5.37500659 5.0625 7.0625 C5.05347656 7.98160156 5.04445312 8.90070313 5.03515625 9.84765625 C5.02355469 10.55792969 5.01195312 11.26820313 5 12 C4.34 12 3.68 12 3 12 C2.96261719 11.37351562 2.92523438 10.74703125 2.88671875 10.1015625 C2.82097656 9.28429687 2.75523437 8.46703125 2.6875 7.625 C2.62949219 6.81289063 2.57148438 6.00078125 2.51171875 5.1640625 C2.17009472 2.62078662 2.17009472 2.62078662 -1 1 C-0.67 0.67 -0.34 0.34 0 0 Z " fill="#F06763" transform="translate(226,251)"/>
<path d="M0 0 C3.69230769 0.69230769 3.69230769 0.69230769 5 2 C5.07205511 3.68608966 5.08386068 5.37500659 5.0625 7.0625 C5.05347656 7.98160156 5.04445312 8.90070313 5.03515625 9.84765625 C5.02355469 10.55792969 5.01195312 11.26820313 5 12 C4.34 12 3.68 12 3 12 C2.96261719 11.37351562 2.92523438 10.74703125 2.88671875 10.1015625 C2.82097656 9.28429687 2.75523437 8.46703125 2.6875 7.625 C2.62949219 6.81289063 2.57148438 6.00078125 2.51171875 5.1640625 C2.17009472 2.62078662 2.17009472 2.62078662 -1 1 C-0.67 0.67 -0.34 0.34 0 0 Z " fill="#F06763" transform="translate(163,251)"/>
<path d="M0 0 C4.875 0.875 4.875 0.875 6 2 C6.14115161 4.67058851 6.04247107 7.32432238 6 10 C5.01 9.67 4.02 9.34 3 9 C3.66 7.68 4.32 6.36 5 5 C4.01 4.67 3.02 4.34 2 4 C2.66 4 3.32 4 4 4 C4 3.34 4 2.68 4 2 C2.35 2.33 0.7 2.66 -1 3 C-0.67 2.01 -0.34 1.02 0 0 Z " fill="#4E8BF6" transform="translate(68,504)"/>
<path d="M0 0 C1.32 0 2.64 0 4 0 C4 1.98 4 3.96 4 6 C2.35 5.67 0.7 5.34 -1 5 C-0.67 3.35 -0.34 1.7 0 0 Z " fill="#F6F6FD" transform="translate(80,405)"/>
<path d="M0 0 C0.495 0.350625 0.99 0.70125 1.5 1.0625 C5.22697603 2.46011601 8.09802848 1.65032859 12 1 C10.875 3 10.875 3 9 5 C5.69081929 5.48258885 3.86506087 5.63437797 1.125 3.625 C0 2 0 2 0 0 Z " fill="#3B435B" transform="translate(192,330)"/>
<path d="M0 0 C0.33 1.32 0.66 2.64 1 4 C-1.31 4.33 -3.62 4.66 -6 5 C-6 3.68 -6 2.36 -6 1 C-4 0 -4 0 0 0 Z " fill="#BDBFC1" transform="translate(225,182)"/>
<path d="M0 0 C1.98 0.495 1.98 0.495 4 1 C4 2.65 4 4.3 4 6 C2.35 5.67 0.7 5.34 -1 5 C-0.67 3.35 -0.34 1.7 0 0 Z " fill="#F7F6FD" transform="translate(116,506)"/>
<path d="M0 0 C3.81365679 -0.35475877 5.58442458 -0.2619932 8.875 1.8125 C11 4 11 4 11 7 C10.01 7 9.02 7 8 7 C5 3.66666667 5 3.66666667 5 1 C3.35 1 1.7 1 0 1 C0 0.67 0 0.34 0 0 Z " fill="#57586A" transform="translate(131,315)"/>
<path d="M0 0 C3.875 0.875 3.875 0.875 5 2 C5.04092937 4.33297433 5.04241723 6.66705225 5 9 C3.02 9.99 3.02 9.99 1 11 C1.32552083 9.01432292 1.65104167 7.02864583 1.9765625 5.04296875 C2.19577848 2.68244176 2.19577848 2.68244176 0 0 Z " fill="#EFEBFA" transform="translate(435,188)"/>
<path d="M0 0 C1.99954746 -0.04254356 4.00041636 -0.04080783 6 0 C7 1 7 1 7.0625 4.0625 C7.041875 5.031875 7.02125 6.00125 7 7 C6.34 6.34 5.68 5.68 5 5 C5 4.01 5 3.02 5 2 C2.69 2.66 0.38 3.32 -2 4 C-1.34 2.68 -0.68 1.36 0 0 Z " fill="#EAF4FD" transform="translate(422,164)"/>
<path d="M0 0 C1.65 0 3.3 0 5 0 C5 0.66 5 1.32 5 2 C4.01 2.495 4.01 2.495 3 3 C2.59270772 5.32156597 2.25561323 7.6568787 2 10 C1.34 10 0.68 10 0 10 C0 6.7 0 3.4 0 0 Z " fill="#5D90F7" transform="translate(116,403)"/>
<path d="M0 0 C1.98 0 3.96 0 6 0 C6 1.32 6 2.64 6 4 C3.69 4 1.38 4 -1 4 C-0.67 2.68 -0.34 1.36 0 0 Z " fill="#9CB9F9" transform="translate(108,405)"/>
<path d="M0 0 C0.99 0 1.98 0 3 0 C3.66 2.64 4.32 5.28 5 8 C4.01 8.33 3.02 8.66 2 9 C2 8.34 2 7.68 2 7 C1.34 7 0.68 7 0 7 C0 4.69 0 2.38 0 0 Z " fill="#DEEDF8" transform="translate(85,178)"/>
<path d="M0 0 C0 1.32 0 2.64 0 4 C-1.98 4.33 -3.96 4.66 -6 5 C-6 3.68 -6 2.36 -6 1 C-3 0 -3 0 0 0 Z " fill="#EBEEEB" transform="translate(65,328)"/>
<path d="M0 0 C1.32 0.33 2.64 0.66 4 1 C3.319375 1.556875 3.319375 1.556875 2.625 2.125 C0.52970606 4.54264685 -0.12013285 6.95430602 -1 10 C-1.33 10 -1.66 10 -2 10 C-2.25 3.375 -2.25 3.375 0 0 Z " fill="#484759" transform="translate(225,321)"/>
<path d="M0 0 C0 0.99 0 1.98 0 3 C-2.31 3.33 -4.62 3.66 -7 4 C-6.625 2.0625 -6.625 2.0625 -6 0 C-3.50907189 -1.24546405 -2.58919267 -0.7767578 0 0 Z " fill="#E8E7E5" transform="translate(65,323)"/>
<path d="M0 0 C0.33 0 0.66 0 1 0 C1.33 2.31 1.66 4.62 2 7 C-0.97 7 -3.94 7 -7 7 C-6.67 6.01 -6.34 5.02 -6 4 C-4.35 4.33 -2.7 4.66 -1 5 C-0.67 3.35 -0.34 1.7 0 0 Z " fill="#EDF4FD" transform="translate(426,192)"/>
<path d="M0 0 C0.33 0 0.66 0 1 0 C1 3.63 1 7.26 1 11 C0.67 10.34 0.34 9.68 0 9 C-0.66 9 -1.32 9 -2 9 C-2 6.69 -2 4.38 -2 2 C-1.34 2 -0.68 2 0 2 C0 1.34 0 0.68 0 0 Z " fill="#D7ECFE" transform="translate(171,176)"/>
<path d="M0 0 C-0.33 0.99 -0.66 1.98 -1 3 C-2.98 3 -4.96 3 -7 3 C-7.33 2.01 -7.66 1.02 -8 0 C-5.13822943 -1.43088528 -3.06624227 -0.59991697 0 0 Z " fill="#B7B7B6" transform="translate(256,177)"/>
<path d="M0 0 C0.33 0.99 0.66 1.98 1 3 C1.66 3 2.32 3 3 3 C3 3.66 3 4.32 3 5 C2.34 5 1.68 5 1 5 C1 7.31 1 9.62 1 12 C1.66 12 2.32 12 3 12 C3 12.66 3 13.32 3 14 C2.01 14 1.02 14 0 14 C0 10.7 0 7.4 0 4 C-0.66 3.67 -1.32 3.34 -2 3 C-1.34 3 -0.68 3 0 3 C0 2.01 0 1.02 0 0 Z " fill="#556070" transform="translate(421,605)"/>
<path d="M0 0 C0.33 0.99 0.66 1.98 1 3 C1.66 3 2.32 3 3 3 C3 3.66 3 4.32 3 5 C2.34 5 1.68 5 1 5 C1 7.31 1 9.62 1 12 C1.66 12 2.32 12 3 12 C3 12.66 3 13.32 3 14 C2.01 14 1.02 14 0 14 C0 10.7 0 7.4 0 4 C-0.66 3.67 -1.32 3.34 -2 3 C-1.34 3 -0.68 3 0 3 C0 2.01 0 1.02 0 0 Z " fill="#556070" transform="translate(181,605)"/>
<path d="M0 0 C1.32 0 2.64 0 4 0 C4 1.98 4 3.96 4 6 C2.68 6 1.36 6 0 6 C0 4.02 0 2.04 0 0 Z " fill="#FBFAFE" transform="translate(105,506)"/>
<path d="M0 0 C0.33 0.99 0.66 1.98 1 3 C1.99 3.33 2.98 3.66 4 4 C3.01 4 2.02 4 1 4 C1 6.64 1 9.28 1 12 C1.99 12 2.98 12 4 12 C4 12.66 4 13.32 4 14 C2.68 13.67 1.36 13.34 0 13 C0 10.03 0 7.06 0 4 C-0.66 3.67 -1.32 3.34 -2 3 C-1.34 3 -0.68 3 0 3 C0 2.01 0 1.02 0 0 Z " fill="#EF4B52" transform="translate(172,249)"/>
<path d="M0 0 C2.31 0.33 4.62 0.66 7 1 C6.67 1.99 6.34 2.98 6 4 C4.824375 3.9690625 4.824375 3.9690625 3.625 3.9375 C1.01885039 3.81315937 1.01885039 3.81315937 -1 5 C-0.67 3.35 -0.34 1.7 0 0 Z " fill="#81ACF4" transform="translate(419,193)"/>
<path d="M0 0 C1.98 0 3.96 0 6 0 C6 1.32 6 2.64 6 4 C4.02 4 2.04 4 0 4 C0 2.68 0 1.36 0 0 Z " fill="#4A7DEE" transform="translate(369,182)"/>
<path d="M0 0 C2.86724686 0.57344937 3.8614515 0.8614515 6 3 C5.34 3 4.68 3 4 3 C4 3.66 4 4.32 4 5 C2.35 4.67 0.7 4.34 -1 4 C-0.67 2.68 -0.34 1.36 0 0 Z " fill="#E2E5E9" transform="translate(260,322)"/>
<path d="M0 0 C0.99 0.33 1.98 0.66 3 1 C2.67 4.3 2.34 7.6 2 11 C1.34 11 0.68 11 0 11 C0 7.37 0 3.74 0 0 Z " fill="#F17659" transform="translate(302,252)"/>
<path d="M0 0 C0.66 0 1.32 0 2 0 C3.35015859 4.05047576 2.62084998 6.7920168 2 11 C1.34 11 0.68 11 0 11 C0 7.37 0 3.74 0 0 Z " fill="#968289" transform="translate(230,176)"/>
<path d="M0 0 C0.66 0 1.32 0 2 0 C2 0.99 2 1.98 2 3 C5.465 2.505 5.465 2.505 9 2 C9.33 2.99 9.66 3.98 10 5 C7.03 5 4.06 5 1 5 C0.67 3.35 0.34 1.7 0 0 Z " fill="#F1F6FD" transform="translate(420,170)"/>
<path d="M0 0 C0.33 1.32 0.66 2.64 1 4 C2.98 4 4.96 4 7 4 C7 4.33 7 4.66 7 5 C5.02 5.33 3.04 5.66 1 6 C0.67 6.99 0.34 7.98 0 9 C-0.66 9 -1.32 9 -2 9 C-1.51421457 5.87709365 -1.0013988 3.00419641 0 0 Z " fill="#7B7D85" transform="translate(192,610)"/>
<path d="M0 0 C-3 2 -3 2 -6 2 C-6.33 2.99 -6.66 3.98 -7 5 C-7.66 3.68 -8.32 2.36 -9 1 C-5.64919071 -1.10976881 -3.77897651 -1.0497157 0 0 Z " fill="#5E6476" transform="translate(65,327)"/>
<path d="M0 0 C1.32 0.33 2.64 0.66 4 1 C4.625 3.3125 4.625 3.3125 5 6 C4.01 7.485 4.01 7.485 3 9 C2.01 6.03 1.02 3.06 0 0 Z " fill="#57576F" transform="translate(70,320)"/>
<path d="M0 0 C2.1875 0.3125 2.1875 0.3125 4 1 C4 2.65 4 4.3 4 6 C3.01 6.495 3.01 6.495 2 7 C2 5.68 2 4.36 2 3 C0.35 3 -1.3 3 -3 3 C-1.75 1.4375 -1.75 1.4375 0 0 Z " fill="#3974CE" transform="translate(434,190)"/>
<path d="M0 0 C0.33 0 0.66 0 1 0 C1 1.65 1 3.3 1 5 C0.67 4.34 0.34 3.68 0 3 C-0.99 3.66 -1.98 4.32 -3 5 C-4.32 5 -5.64 5 -7 5 C-7.33 4.01 -7.66 3.02 -8 2 C-5.36 2 -2.72 2 0 2 C0 1.34 0 0.68 0 0 Z " fill="#EDF8FD" transform="translate(154,180)"/>
<path d="M0 0 C4.875 0.875 4.875 0.875 6 2 C6.04063832 3.66617115 6.042721 5.33388095 6 7 C4.68 6.67 3.36 6.34 2 6 C2.66 6 3.32 6 4 6 C3.0022242 3.00667261 2.2477975 2.05233685 0 0 Z " fill="#384763" transform="translate(182,321)"/>
<path d="M0 0 C-0.33 1.32 -0.66 2.64 -1 4 C-2.32 4.33 -3.64 4.66 -5 5 C-5 3.68 -5 2.36 -5 1 C-2 0 -2 0 0 0 Z " fill="#F5DBDD" transform="translate(241,257)"/>
<path d="M0 0 C-0.33 1.32 -0.66 2.64 -1 4 C-2.32 4.33 -3.64 4.66 -5 5 C-5 3.68 -5 2.36 -5 1 C-2 0 -2 0 0 0 Z " fill="#F5DBDD" transform="translate(211,257)"/>
<path d="M0 0 C1.98 0 3.96 0 6 0 C6 1.32 6 2.64 6 4 C5.67 3.34 5.34 2.68 5 2 C3.35 2 1.7 2 0 2 C0 2.66 0 3.32 0 4 C-0.66 4 -1.32 4 -2 4 C-1.34 2.68 -0.68 1.36 0 0 Z " fill="#948B8A" transform="translate(220,176)"/>
<path d="M0 0 C1.98 0 3.96 0 6 0 C6.33 0.66 6.66 1.32 7 2 C6.67 2.66 6.34 3.32 6 4 C3.69 4 1.38 4 -1 4 C-0.67 2.68 -0.34 1.36 0 0 Z " fill="#628EF0" transform="translate(369,175)"/>
<path d="M0 0 C0 0.99 0 1.98 0 3 C-1.98 3 -3.96 3 -6 3 C-6 2.01 -6 1.02 -6 0 C-3.50907189 -1.24546405 -2.58919267 -0.7767578 0 0 Z " fill="#EBECEC" transform="translate(185,323)"/>
<path d="M0 0 C0.33 1.32 0.66 2.64 1 4 C0.01 4 -0.98 4 -2 4 C-2.33 3.34 -2.66 2.68 -3 2 C-5.52733235 1.34444881 -5.52733235 1.34444881 -8 1 C-4.93251126 -0.86240388 -3.40254489 -1.2151946 0 0 Z " fill="#4E5E78" transform="translate(52,317)"/>
<path d="M0 0 C0.66 0.33 1.32 0.66 2 1 C0.02 1.99 0.02 1.99 -2 3 C-2 3.66 -2 4.32 -2 5 C-1.01 5.66 -0.02 6.32 1 7 C-0.65 6.67 -2.3 6.34 -4 6 C-4.33 4.68 -4.66 3.36 -5 2 C-2.625 0.9375 -2.625 0.9375 0 0 Z " fill="#F06156" transform="translate(238,256)"/>
<path d="M0 0 C0.66 0.33 1.32 0.66 2 1 C0.02 1.99 0.02 1.99 -2 3 C-2 3.66 -2 4.32 -2 5 C-1.01 5.66 -0.02 6.32 1 7 C-0.65 6.67 -2.3 6.34 -4 6 C-4.33 4.68 -4.66 3.36 -5 2 C-2.625 0.9375 -2.625 0.9375 0 0 Z " fill="#F06156" transform="translate(208,256)"/>
<path d="M0 0 C0.66 0.66 1.32 1.32 2 2 C5.58343976 2.16677282 5.58343976 2.16677282 9 2 C8.01 3.485 8.01 3.485 7 5 C3.875 5.1875 3.875 5.1875 1 5 C0.67 3.35 0.34 1.7 0 0 Z " fill="#F0656D" transform="translate(147,258)"/>
<path d="M0 0 C0.66 0.66 1.32 1.32 2 2 C5.58343976 2.16677282 5.58343976 2.16677282 9 2 C8.01 3.485 8.01 3.485 7 5 C3.875 5.1875 3.875 5.1875 1 5 C0.67 3.35 0.34 1.7 0 0 Z " fill="#F0656D" transform="translate(129,258)"/>
<path d="M0 0 C0.99 0.33 1.98 0.66 3 1 C2.34 1 1.68 1 1 1 C1 1.66 1 2.32 1 3 C2.65 3.33 4.3 3.66 6 4 C6 4.33 6 4.66 6 5 C4.02 5 2.04 5 0 5 C-0.5625 3.0625 -0.5625 3.0625 -1 1 C-0.67 0.67 -0.34 0.34 0 0 Z " fill="#7693F6" transform="translate(125,509)"/>
<path d="M0 0 C1.65 0 3.3 0 5 0 C5.33 0.99 5.66 1.98 6 3 C3.69 3 1.38 3 -1 3 C-0.67 2.01 -0.34 1.02 0 0 Z " fill="#F3F4F0" transform="translate(90,323)"/>
<path d="M0 0 C2.31 0.33 4.62 0.66 7 1 C7 1.99 7 2.98 7 4 C4.03 3.505 4.03 3.505 1 3 C0.67 2.01 0.34 1.02 0 0 Z " fill="#5D657A" transform="translate(90,320)"/>
<path d="M0 0 C0 0.66 0 1.32 0 2 C-1.65 2.33 -3.3 2.66 -5 3 C-5.66 2.01 -6.32 1.02 -7 0 C-4.3333581 -1.33332095 -2.83319697 -0.67102033 0 0 Z " fill="#F5E1DD" transform="translate(241,254)"/>
<path d="M0 0 C0 0.66 0 1.32 0 2 C-1.65 2.33 -3.3 2.66 -5 3 C-5.66 2.01 -6.32 1.02 -7 0 C-4.3333581 -1.33332095 -2.83319697 -0.67102033 0 0 Z " fill="#F5E1DD" transform="translate(211,254)"/>
<path d="M0 0 C1.98 0 3.96 0 6 0 C6 0.66 6 1.32 6 2 C5.34 2 4.68 2 4 2 C4 2.66 4 3.32 4 4 C2.35 3.67 0.7 3.34 -1 3 C-0.67 2.01 -0.34 1.02 0 0 Z " fill="#F4E2EC" transform="translate(120,253)"/>
<path d="M0 0 C1.67542976 0.28604898 3.34385343 0.61781233 5 1 C5.33 2.65 5.66 4.3 6 6 C5.34 6 4.68 6 4 6 C3.67 5.01 3.34 4.02 3 3 C0.99983534 1.79117904 0.99983534 1.79117904 -1 1 C-0.67 0.67 -0.34 0.34 0 0 Z " fill="#F1F4FC" transform="translate(446,164)"/>
<path d="M0 0 C2.1385485 2.1385485 2.42655063 3.13275314 3 6 C1.35 6 -0.3 6 -2 6 C-1.49396008 3.83125748 -1.00016187 2.00032373 0 0 Z " fill="#D1D8D6" transform="translate(196,607)"/>
<path d="M0 0 C0.33 0 0.66 0 1 0 C1.66 2.97 2.32 5.94 3 9 C2.01 9 1.02 9 0 9 C-1.10844919 5.67465243 -0.84454356 3.37817425 0 0 Z " fill="#496087" transform="translate(225,325)"/>
<path d="M0 0 C1 1 1 1 1.0625 3.5625 C1.041875 4.366875 1.02125 5.17125 1 6 C0.401875 5.38125 -0.19625 4.7625 -0.8125 4.125 C-3.00811144 1.86323046 -3.00811144 1.86323046 -6 0 C-3.49749232 -1.25125384 -2.59701335 -0.83774624 0 0 Z " fill="#44557B" transform="translate(52,326)"/>
<path d="M0 0 C0.99 0.33 1.98 0.66 3 1 C5.00875442 0.72428861 7.01178687 0.39764263 9 0 C8.01 1.485 8.01 1.485 7 3 C3.875 3.1875 3.875 3.1875 1 3 C0.67 2.01 0.34 1.02 0 0 Z " fill="#585B70" transform="translate(240,320)"/>
<path d="M0 0 C2.375 0.25 2.375 0.25 5 1 C6.3125 3.0625 6.3125 3.0625 7 5 C6.01 5 5.02 5 4 5 C4 4.34 4 3.68 4 3 C2.68 2.67 1.36 2.34 0 2 C0 1.34 0 0.68 0 0 Z " fill="#47516A" transform="translate(197,320)"/>
<path d="M0 0 C2.31 0 4.62 0 7 0 C7 0.99 7 1.98 7 3 C5.35 3.33 3.7 3.66 2 4 C2 3.34 2 2.68 2 2 C1.34 2 0.68 2 0 2 C0 1.34 0 0.68 0 0 Z " fill="#F6E8E1" transform="translate(105,253)"/>
<path d="M0 0 C3.625 -0.1875 3.625 -0.1875 7 0 C6.34 0.66 5.68 1.32 5 2 C3.68 2 2.36 2 1 2 C1 2.66 1 3.32 1 4 C0.01 3.67 -0.98 3.34 -2 3 C-1.34 2.01 -0.68 1.02 0 0 Z " fill="#DEE9FB" transform="translate(420,188)"/>
<path d="M0 0 C2.64 0 5.28 0 8 0 C6.8125 1.5625 6.8125 1.5625 5 3 C2.3125 2.6875 2.3125 2.6875 0 2 C0 1.34 0 0.68 0 0 Z " fill="#F3FAFB" transform="translate(249,182)"/>
<path d="M0 0 C0.99 0 1.98 0 3 0 C3 1.32 3 2.64 3 4 C1.02 4 -0.96 4 -3 4 C-1.6875 2 -1.6875 2 0 0 Z " fill="#21232E" transform="translate(438,76)"/>
<path d="M0 0 C2.475 0.495 2.475 0.495 5 1 C4.67 1.99 4.34 2.98 4 4 C2.68 4 1.36 4 0 4 C0 2.68 0 1.36 0 0 Z " fill="#1C2B43" transform="translate(283,69)"/>
<path d="M0 0 C0.66 0 1.32 0 2 0 C2 2.31 2 4.62 2 7 C1.01 7.33 0.02 7.66 -1 8 C-0.67 5.36 -0.34 2.72 0 0 Z " fill="#536073" transform="translate(349,614)"/>
<path d="M0 0 C0.66 0 1.32 0 2 0 C2 2.31 2 4.62 2 7 C1.01 7.33 0.02 7.66 -1 8 C-0.67 5.36 -0.34 2.72 0 0 Z " fill="#536073" transform="translate(108,614)"/>
<path d="M0 0 C2.475 0.495 2.475 0.495 5 1 C5 1.99 5 2.98 5 4 C3.35 4 1.7 4 0 4 C0 2.68 0 1.36 0 0 Z " fill="#C1C9FA" transform="translate(126,508)"/>
<path d="M0 0 C0.66 0 1.32 0 2 0 C2 2.31 2 4.62 2 7 C1.01 7.33 0.02 7.66 -1 8 C-0.67 5.36 -0.34 2.72 0 0 Z " fill="#4A8CF6" transform="translate(405,507)"/>
<path d="M0 0 C0.66 0 1.32 0 2 0 C1.34 2.31 0.68 4.62 0 7 C-0.99 7 -1.98 7 -3 7 C-2.01 4.69 -1.02 2.38 0 0 Z " fill="#6D94F7" transform="translate(141,504)"/>
<path d="M0 0 C2.31 0 4.62 0 7 0 C6.67 0.99 6.34 1.98 6 3 C3.03 2.505 3.03 2.505 0 2 C0 1.34 0 0.68 0 0 Z " fill="#E0E8FC" transform="translate(107,409)"/>
<path d="M0 0 C0.66 0 1.32 0 2 0 C2 2.31 2 4.62 2 7 C1.01 7.33 0.02 7.66 -1 8 C-0.67 5.36 -0.34 2.72 0 0 Z " fill="#4A8CF6" transform="translate(405,406)"/>
<path d="M0 0 C0.66 0.66 1.32 1.32 2 2 C4.06874034 2.6425235 4.06874034 2.6425235 6 3 C6 3.66 6 4.32 6 5 C4.35 5 2.7 5 1 5 C0.34 3.68 -0.32 2.36 -1 1 C-0.67 0.67 -0.34 0.34 0 0 Z " fill="#38465D" transform="translate(148,330)"/>
<path d="M0 0 C2.0625 0.4375 2.0625 0.4375 4 1 C1.03 3.475 1.03 3.475 -2 6 C-1.125 1.125 -1.125 1.125 0 0 Z " fill="#4E4D62" transform="translate(88,321)"/>
<path d="M0 0 C1.65 0 3.3 0 5 0 C5 0.99 5 1.98 5 3 C3.68 3.33 2.36 3.66 1 4 C0.67 2.68 0.34 1.36 0 0 Z " fill="#F6ECED" transform="translate(107,258)"/>
<path d="M0 0 C1.65 0 3.3 0 5 0 C4.67 0.99 4.34 1.98 4 3 C2.02 3.33 0.04 3.66 -2 4 C-2 3.34 -2 2.68 -2 2 C-1.34 2 -0.68 2 0 2 C0 1.34 0 0.68 0 0 Z " fill="#EFF2EF" transform="translate(220,178)"/>
<path d="M0 0 C0.7425 0.0825 1.485 0.165 2.25 0.25 C0.27 1.24 0.27 1.24 -1.75 2.25 C-1.42 2.91 -1.09 3.57 -0.75 4.25 C-2.73 4.25 -4.71 4.25 -6.75 4.25 C-3.42692308 0.31153846 -3.42692308 0.31153846 0 0 Z " fill="#474546" transform="translate(139.75,75.75)"/>
</svg>
