<?xml version="1.0" encoding="UTF-8"?>
<svg version="1.1" xmlns="http://www.w3.org/2000/svg" width="48" height="48">
<path d="M0 0 C13.2 0 26.4 0 40 0 C40 10.56 40 21.12 40 32 C26.8 32 13.6 32 0 32 C0 21.44 0 10.88 0 0 Z " fill="#4FE5FE" transform="translate(4,8)"/>
<path d="M0 0 C7.59 0 15.18 0 23 0 C23 2.64 23 5.28 23 8 C19.91462971 8.03540736 16.83495944 7.99346806 13.75 7.9375 C12.87730469 7.94845703 12.00460938 7.95941406 11.10546875 7.97070312 C10.26113281 7.94814453 9.41679687 7.92558594 8.546875 7.90234375 C7.77182617 7.89710693 6.99677734 7.89187012 6.19824219 7.88647461 C4 7 4 7 0 0 Z " fill="#35C0F0" transform="translate(21,8)"/>
<path d="M0 0 C3.63 0 7.26 0 11 0 C11 2.64 11 5.28 11 8 C7.75 7.9375 7.75 7.9375 4 7 C2.1455908 4.7768466 1.21440756 2.67169663 0 0 Z " fill="#2F7BD5" transform="translate(33,8)"/>
</svg>
